<?xml version="1.0" encoding="utf-8"?>
<!-- Generator: Adobe Illustrator 25.0.1, SVG Export Plug-In . SVG Version: 6.00 Build 0)  -->
<svg version="1.0" id="katman_1" xmlns="http://www.w3.org/2000/svg" xmlns:xlink="http://www.w3.org/1999/xlink" x="0px" y="0px"
	 viewBox="0 0 560 400" style="enable-background:new 0 0 560 400;" xml:space="preserve">
<style type="text/css">
	.st0{clip-path:url(#SVGID_2_);}
	.st1{clip-path:url(#SVGID_4_);}
	.st2{fill:#231F20;}
</style>
<g transform="matrix(.138889 0 0 -.138889 180 308.757)">
	<g>
		<defs>
			<path id="SVGID_1_" d="M-14.7,406.8c7.5-1.2,16.3,0,18.7,1.1c1.9,0.9-0.4,1.8-10.7,1.5C-5.9,414.8-14.3,408.9-14.7,406.8
				 M89.5,580.3c-12.5,1.6-25.2-0.3-37.6-1.8l-18.3,0.9c-8.4-9,21.5-6.3,22.8-6c2.3,0.5,6,0.4,10,0.4
				C75.7,573.7,87.2,573.6,89.5,580.3 M143,534.9c1.3,18.8-26.2,4.9-23.6,3.8C122.2,537.5,139.6,534.8,143,534.9 M289.9,497.6
				c2.3,0.7,5.8,0.3,9.3-0.1c6.6-0.8,13.2-1.5,12.1,5.4C301.9,503.4,294.2,502.2,289.9,497.6 M376.8,498c-2.4,5.5-3.5,8.4-13.9,7.8
				c-3.3,0.8-6.7,3.9-11,3.8c-4.8-0.2-8.3-1.5-11.1-4c-7.5,1.2-16.6-2.1-19-5.3c5.5,1,10.4,0,15-1c5.2-1.1,9.9-2.3,14.3-0.5
				c6.6,2.6,20.2,5.8,26.8-1.2L376.8,498z M505.9,1395.7c0.1-6.9,17.4-14.6,19-5.9c-4.4-1-9.9,3.5-16.9,8c-7,4.5-15.5,9.1-25.8,8
				c8-3.6,14.2-8.5,23.3-8.6L505.9,1395.7z M522.3,166.3c-6.2,1.3-18.4-4.3-10.7-8C512.4,163.8,519.8,162.9,522.3,166.3
				 M546.3,1592.9c-2.6-0.2-5.3,0.5-7.7,1.2c-5,1.5-9.3,2.9-11-3.9c2.6,0.2,5.2-0.5,7.7-1.2C540.4,1587.5,544.7,1586,546.3,1592.9
				 M575.7,155.6c-12.3-2.1-29.2,0.7-32.1-10.7C550.5,142.9,575.7,147.6,575.7,155.6 M594.4,1707.8c-2.8-0.4-5.2,0.3-7.4,1
				c-4.1,1.3-7,2.7-8.7-3.7c1.7,0.5,4.3,0.2,6.9,0C589.7,1704.5,594.2,1704,594.4,1707.8 M599.8,161c-6.1,0.6-10-0.7-10.7-5.4
				C595.2,154.9,599.1,156.2,599.8,161 M706.6,166.3c4.1,6.6,21.9-0.6,21.4,10.7C718.9,177.2,700.8,172.3,706.6,166.3 M730.7,1729.1
				c-1.9-0.7-4,0.4-6,1.4c-3.1,1.6-6,3.3-7.4-1.4C719,1727.6,730,1722.8,730.7,1729.1 M744,179.6c8.1,7.1,29.2,1.1,32.1,13.5
				C764.2,192.3,740.5,185.3,744,179.6 M768.1,251.8c1.4,2.5,2.3,5.1,2.7,8c-4.8,0-9.2-1.6-8-8H768.1z M741.4,1734.5
				c11.9-1.3,33.7-10.6,40.1-5.3c-3.1,3.2-18.6,10.2-30.5,8.2c-10.7,3.2-20,2.4-20.3-2.8H741.4z M784.1,1841.3
				c-1.4,0-15.4,1.7-16-2.7c1.1,0.4,3.3,0.1,5.7-0.2C778.4,1837.9,783.9,1837.4,784.1,1841.3 M821.5,1729.1c0.7,7-16.5,9.9-18.7,5.3
				c3.6,0.1,5.5-1.4,7.4-3C812.7,1729.4,815.2,1727.4,821.5,1729.1 M800.1,1830.6c5.8,0.9,10.9,0.2,15.3-0.4
				c7-1.1,12.3-2.1,16.8,3.1C821.8,1835.5,806.8,1838.5,800.1,1830.6 M837.5,1737.1c-6.6,0.3-11.1-1.4-13.4-5.3
				C830.8,1731.4,837.2,1731.3,837.5,1737.1 M877.6,1833.3c-2.6-0.5-7.2,0.8-12.1,2c-8.4,2.1-17.7,4.3-19.9-2
				C860.2,1833,865.5,1824.7,877.6,1833.3 M939,227.8c-0.3,3.4,5.4,5.4,2.7,10.7C940.3,236.7,930.9,230.3,939,227.8 M981.8,251.8
				c7.2,3.4,17.6,5,21.4,13.3c-17.1-3.5-33.4-11.1-45.4-24C967.1,241.3,973.9,248,981.8,251.8 M1171.4,1782.6
				c-5.4-0.9-10.2,1.7-14.4,4.4c-4.9,3.1-9,6.2-12.2,3.6C1153.8,1787.4,1164.1,1771.5,1171.4,1782.6 M1221,379
				c-2.1,9.3,6.2,9.7,11.9,17.1c-8.1-1.8-35-28.4-36-36.1c-1.6-11.8-37.8-27.2-44.1-38.7c1.2,1.7,2.5,3.3,3.9,4.9
				c-1.1-0.6-12.6-19.2-14.5-15.6c-3.6,0-14.4-5.3-23.9-13.8c-6.1-3.9-10.9-5.1-10.8-7.5c6.8,1.1,10.9,3.9,17.3,6.6
				c6.6,2.8,5.6,6.6,9.4,9.4c-1-0.7,12.1,5.4,16,9.3c10.1,10.3,18.2,12.1,28.6,22.1c5.8,5.6,14.5,11.6,14.9,14.4
				c3.3,13.8,14.4,19.6,25.4,26.8L1221,379z M1609.6,1309.7c1.4,8.4-4.3,18.8-7.8,26.1c-5.3,11.1,0.8,16.8-6.1,26.9
				C1597.7,1348.7,1602.3,1317,1609.6,1309.7 M1615.8,1268.4c0.6,14.3-0.3,18.4-3.5,25.3C1606.3,1282.7,1610,1275.3,1615.8,1268.4
				 M1617.6,1173.5c-0.4,6.6-0.5,11.3-3.1,20.6c-3.4,12-5.6,23.9-7.7,36.2c-3.8,21.6-6,43.3-10.9,64.5c-2.2,9.4-5.1,19-7.7,28.2
				c-3.4,11.5-3.6,23.2-9.5,34c-6.1,11.2-7.2,33.7-22.4,54.1c0.5-12.2,24.9-36.5,8-45.4c-4.7-1.1-8.9-0.7-21.3,40.4
				c-5.1,13.2-16.6,21.8-18.2,37.1c-11.1,2.7-13.5,17.7-20.5,25.5c-3.1,3.4-12.8,9.6-10.8,15.3c0.5,1.2,7,1.7,5.6,4.9
				c-1.9,0.3-3.9,0.1-5.6-0.1c-5.2-0.5-8.7-1-4.5,9.8c3,7.5-29.5,12.2-18.1,22.1c1.9,0.9,3.5-0.1,4.8-1.2c1.6-1.3,2.7-2.6,3.3-0.1
				c-7,5.9-13.9,8.7-21.2,14.3c-9.5,7.2-5.8,10.2-11.5,17.4c-2.7,2.7-11.9-0.3-9.1,9.4c-3.8,3.8-17.4,17.7-6.4,16.3
				c22.6-11.1,43.3-39.9,59.4-56.7c6.5-6.8,3.9-9,12.6-15.5c6.6-4.9,13.5-11,16.3-19c2.6-7.3,10-26.4,18.3-25.3
				c0.7,1.7-0.5,5.3-2.7,9.7c-4.6-2.4-9.1,19.2-19.8,27.2c-18.4,11.4-24.1,34.5-44,44.9c-8.3,15-25.4,29.8-35.7,42.1
				c-7.4,8.8-17.7,17.7-28.5,22.2c5.4,6.7,4,8.3-2.4,9.7c-0.8-6.7-14,2.8-17.1,6.6c-2.5-0.2-1.3,3.2-0.9,6.6
				c0.4,3.6-0.1,7.1-6.7,6.6c-7.8-0.7-11.3,16.4-19.8,20.5c-8.2,4-28.4-2-31.3,9.7c-2.4,9.9,2.6,7.8,8,5.7c4.1-1.6,8.4-3.2,9.7,0.6
				c-7.7,5-15.6,9.7-22.6,15.7c-11,9.4-13.9,13.3-26.6,19.9c-7.1,3.7-13.2,8.7-18.7,14.5c-9,9.3-14.4,10.1-24.5,16.9
				c-5.9,3.9-10.9,9-17.9,11.1c-5.1-0.1-2.3-16.4-10.7-4.5c-7.8,11.1-6.7,11-19,18.2c-6.2,3.6-15.7,12.2-23.7,10.4
				c8.4-10.5,23.8-13.7,29.4-26.7c-6.7,1.8-13.9,2.6-16-5.3c-7.4,8.5-18.5,12.2-29.4,13.3c-9.5,12-4.5,7.5-16,5.3
				c-10.1,13.5-19.4,35.4-34.7,21.4c-3.3,6.5-6.4,8-13.4,5.4c1.9,9.6-9,6.2-13.4,10.7c-0.6-4.5,7.7-13.3,0-16
				c-5.3-0.5-9.9,1.1-12.6,5.9c-4.9,8.8-2.9,25.9-16.8,26.2c3.3-4.4,2.3-7.6-2.7-9.1c-7.9-2.3-4.4-4.1-5-11.5
				c-0.6-6.9-11.2-2.9-12.1,1.5c-1.3,6.7,5.3,12,1.1,19c7.7-0.8,10.5,2.2,9.6,5.4c-0.8,3.1-5.4,6.3-12.4,5.3
				c2.5,0.3,0.5-1.3-2.4-2.9c-3.5-1.9-8.3-3.9-8.3-2.4c2.4,0.3,4.2-0.6,5.3-2.7c-7.6-4.6-0.4-6.6,0-13.3c-5.4,4.9-16.5,3.3-16,13.3
				c0,0.2,9.7,30.7-1.7,20.3c-1.7-2.5-2.5-5.2-2.5-8.2c-0.7-4.3-2-4.2-3.6-4.1c-1.4,0.1-2.9,0.1-4.2-2.8c-3.8-8.6,0.1-10.4-1.4-18.6
				c-6.2,2.4-17.6,8.3-23.9,2.9c-0.9-6.4-3.7-7.4-8.3-3c-5.2,1.5-13.9,1.7-15.9,8.1c1.3,0,2.9-0.1,4.6-0.2
				c5.2-0.3,11.4-0.6,14.8,2.7c8,7.6-5.1,7.8-8.7,7c-9.8-2.1-23.4-12.7-29.4,1.1c11.6-0.2,5.3,4.9,10.7,10.7c1.6,3.2,4,2.1,6.4,0.9
				c2.6-1.2,5.3-2.5,6.9,1.8c-0.8,2.5-3.7,2.4-6.6,2.3c-3.2-0.1-6.3-0.2-6.7,3.1c-0.5,2.9,2,2.9,4.5,2.8c1.6,0,3.2,0,3.9,0.7
				c6.2,6.9-16.2,5.2-16,3.2c0.9-1.3,1.5-2.6,1.7-4.2c-5.1-4.4-11.4,1.3-18.4,7c-7.3,5.9-15.4,11.8-23.7,6.4
				c8.1-1.8,20.1-2.8,21.4-13.4c-2.8-0.6-6.4,0.1-10.1,0.8c-6.5,1.2-13.3,2.4-16.6-3.4c14.3-2.9,33.6-0.8,45.4-10.7
				c-5.4-4.3-13.9-3.7-21.6-3c-3.8,0.3-7.4,0.6-10.4,0.4c0.3-3.7,2.1-6.3,5.3-8c-17.9-1.1-27.4-8.8-45.4-5.3
				c-18.8,3.5-38.3,6.4-58.8,8c-3-9.8,45-6.7,48.1-16c-8.1-3.9-16.2,1.4-24.1,2.7c0.3-12.8,15.6-10.3,21.4-18.7
				c-8.4-1.1-16.5,0.4-24.6,2.6c-5.2-0.8-12.4,1.7-20.3,4.3c-8.9,2.9-18.7,5.7-27.2,3.8c12.8-4.7,25-10.4,37.4-16
				c-17.3,4.4-38.3,2.1-54.3,10.5c-6.5,3.5-11.2,6.8-18.7,4.4c-1.9-0.6-6,0.1-9.7,0.9c-3.6,0.7-6.8,1.5-7.6,1
				c-2-1.2,39.2-11.1,45.4-12.4c9.9-2.1,51.3-4.6,42.3-17.7c9.1-1,17.8-3.5,26.7-5.3c-9.2-10.7,28.1-8.7,33.3-9.5
				c16.7-2.6,32.5-8.5,46.9-17.2c-4.6,0.7-6.7-1-8.6-2.8c-2.3-2.1-4.3-4.3-10.4-1.9c-10.8,4.1-6.8,5.4-14.3-0.7
				c-1.9-1.6-23.2,8.9-27,9.7c-10.7,2-22.4,2.9-33.2,1.1c9.6-2.8,28.2-1.1,32-13.4h-18.7c3.7-7.6,0.8-7.6-2.9-7.6
				c-2.8,0-6.2,0.1-7.8-3.1c0.5,1,8.6-1.8,5.4-5.3c-9,0.8-19.2,0.3-26.7-5.4c-0.6,4-11.3,13.5-15.5,10.2c-4-3.2-35.8-5-40.9,0.5
				c-11.1,11.8-8.1-3.5-12.3-8.3c-7.2-8.3-10.7-5.9-19.1-3.5c-6.7,2-13.5,0.8-20.3-0.3c-5-0.8-9.9-1.6-14.8-1.3
				c-15.1,1.1-26,8.4-42.8,5.3c16.6-6.5,34-10.1,50.8-16c-3.4-4.4-7.8-3-12.1-1.7c-3.5,1.1-7,2.2-10,0.2
				c-8.5-6.1,11.5-8.9,12.8-12.1c-0.3,0.8-35.6,3.8-41.6,5.6c-10.8,3-23.6,18.4-37.4,10.7c1-8.7,28.7-10.1,34.7-21.4
				c-2.3,1.1-10.2,6.6-10.7,0c14.5-4.4,29.7-8,42.7-16c-3.9-0.9-6.9,0.1-9.9,1.2c-2.7,1-5.4,1.9-8.8,1.5
				c-5.4-16.3,59.3-7.3,56.1-26.7c-7.3-0.6-56.2,5.6-56.4,6.3c1.8-5,16.9-0.2,19-8.9c-2.4,0.2-4.2-0.6-5.3-2.7
				c2.8-0.4,24.4-18,24.7-17.3c-0.3-0.8-31.4,2.8-33.6,4.1c-3.9,2.2-6.3,1.8-8.6,1.5c-2.3-0.4-4.5-0.7-8.2,1.4
				c-4.9,2.9-16.7,9.6-22.4,5c10-0.1,13.3-10.2,23-12.8c11.3-3.1,22-8.3,30.4-16.6c-5.6,0.8-10-1-13.3-5.3
				c2.9-1.3,24.7-7.2,18.7-13.3c-7.9,6.3-9-2.6-2.7-5.4c-14.2-1-25.8,7.8-39.6,8.4c-17.5,0.8-32.2,17.7-51.2,15.6
				c3-1.9,8.7-4.8,9.7-8.5c-0.1,0.5-35.7,8.5-41.7,5.9c9.5-8.3,22.7-10.3,32-18.7c-4.5-0.2-11,2.5-17.6,5.2
				c-9.7,3.9-19.8,7.8-25.1,2.8c9.4,0.9,17.3-4,31.2-7.4c21.5-5.2,45.7-12.6,46.2-22c-11.6,1-28.1,11.2-37.4,5.3
				c22.7-9.9,61.9-16.7,50.8-18.7c-4-4.8-15.7,0.9-20.4,1.7c-7.3,1.3-7.4-1.1-7.8-3.4c-0.3-2.3-0.8-4.6-8.7-3.4
				c-5.4,0.8-26.4,10.8-27.3-0.2c-7.6,1.7-21.8,11.6-29.4,5.3c3.4,0.6,6-0.6,7.7-3.5c0.4-1.2-4.9-0.6-11.1,0
				c-13.1,1.2-30.6,2.4-10-12.5c15.7-12,43.6-10.8,48.1-21.4c-10.2-0.9-20.2,2.6-30,6c-12.2,4.3-24.3,8.5-36.8,4.7
				c1.2-8.3,12.2-7.8,13.4-16c-9.6,0.2-23.2,10.3-32.1,2.7c10.4-6,21.3-10.8,32.1-16c-17-1.8,23.8-18.3,27.6-21
				c0.7-5.7-5.4-5.5-11.5-5.3c-4.5,0.2-8.9,0.3-10.4-2c-4.7-14.1,68.9-15.3,39.7-38.5c6.1,0.3,11.4-1.5,16-5.4
				c-25.2,2.9-46.9,16.7-74.8,16c6.7-7.2,18.9-7,24-16c-0.8-0.3-2.7-0.1-4.8,0.2c-4,0.5-8.9,0.9-8.6-2.8c8.6-5.1,18.3-8,26.7-13.4
				c-1.9-0.3-3.8,0.2-5.6,0.7c-3.4,1-6.3,2-7.8-3.3c9.6-4.9,23-6.3,29.4-16c-3-0.8-6.6,0.3-10.1,1.4c-5.3,1.7-10.5,3.4-13.9-1.4
				c7.5-6,20.9-2.2,26.7-10.7c-3.3-3.6-7.7-5.7-2.7-10.7c-2.4,0.2-4.7-0.1-7-1.1c1.1,1.2-0.7-1.1-2.7-3.4c-1.8-2.2-3.8-4.3-3.7-3.6
				c14.5-5.3,27.7-13.8,43-17.2c15.8-3.5,28.2-14.2,44-19.8c26.4-9.2,55-12.4,81.3-21.3c10.4-3.5,18.8-11.6,29.2-15.7
				c17.1-6.7,35.1-11.1,52.4-17.5c8.9-3.3,20.8-7.1,28.5-12.6c12,0,15.1,1.3,26.1-3.9c17.1-8.1,35.6-15.1,52.6-23.4
				c13.9-6.9,27.4-16.7,42-22.2c47.9-18,84.4-65.9,99.1-114.8c9.4-31.2,9.6-70-3-100.3c-11.9-28.4-32.5-52.9-45-79.8
				c-6.1-13-14.5-18.6-22.6-29.7c-5.9-8.1-10.8-27.5-21.4-30.7c-3.6-1.1-12.6-14.1-17.3-17.4c-12.7-8.9-24.5-21.7-36.2-32
				c-7.7-7.3-20.2-17.2-29.4-24.1c-6.4-4.9-13-4-18.9-10.3c-5.5-5.8-10.3-11.1-16.8-15.9c-28.2-20.7-59.9-35.2-91.5-49.8
				c-40.7-18.7-85.2-32.3-130-39.2c1.1-4.2-4.8-3.6-10.6-2.9c-2.8,0.3-5.6,0.7-7.6,0.4c-10.1-1.1-20.2-2-30.3-2.4
				c-39.5-1.8-78.6-3.9-118.1-4.3c-4.9,0-9.7,0.1-14.6,0.2c-12.3,0.3-24.5,0.6-36.6-1.8c-8-4.7-17.9-3.1-27.7-1.4
				c-9.5,1.6-18.9,3.3-26.4-0.9c17.1-1.2,33.6-5.4,50.8-6.8c23.2-2.1,46.3,1.5,69.4,1.5c19.2,0,38.2-1.8,57.3-2.5
				c3.5-0.1,7.9,0.7,12.6,1.6c10.1,1.8,21.3,3.7,26.3-4.4c-6.8-1.3-10.3-5.1-15.9-7.7c-6.5-3-15.1-4.6-24.2-4.9
				c-18.2-0.6-36.2-1-54.3-2.1c-34.6-2-71.6-9.7-106-9.3c-16.2,0.1-32.5-1.1-48.7-2.2c-15.6-1.1-31.3-2.3-46.9-2.3
				c-16.3,0-69,9.6-83.4-0.8c2.8-0.5,6.7-0.1,10.8,0.4c7.2,0.8,15.1,1.6,18.6-3c-23.4-1.7-46.6-5.5-69.5-10.7
				c21.1-9.1,11.1-10.8-9.3-14c-8.7-1.4-57.6-12.8-61.4-9.3c4.5-4,24.6-1.7,30,0.1c6.4,2.2,12.4,1,18.3-0.2
				c5.6-1.1,11.1-2.2,17.1-0.6c1.4-17,30.2-7,40.1-13.4c-0.7,0.2-7.5-1.9-14.1-4c-6.4-2.1-12.7-4.1-12.7-4
				c8.3-6.5,20.6-3.9,32.8-1.3c13.6,3,27,5.9,34-4.2c-5.1-3.8-11.8-3.1-18.4-2.4c-6.9,0.8-13.8,1.5-19-2.9
				c53.3-3.1,106.9-5.7,160.3-3.8c11.6,0.4,16.3,2.8,22.7-3.9c4.8-5.1,14.4-3.3,19,0.7c6,5.3,10.1,4.2,17.8,3.1
				c4.3-0.6,8.1-0.1,11.4,0.3c7.5,1.1,12,2.1,12-9.8c5.3,1.2,17.2,6.7,18.7-2.8c-14.8-5.1-36.3-5.3-50.5-5.4
				c-3.6,0.2-4.6-1.5-2.9-5.2c7.3,0.6,14.7,0.9,22,1c13,0.2,26,3.2,39,2.8c10.7,0,5-3.4,7.4-3.5c20.7-0.7,42.3,2.1,64.1,4.8
				c29.2,3.7,58.7,7.4,86.6,2.8c-11-21.4-58.3-21.2-87.8-21c-5.8,0-11,0.1-15-0.1c-11.5-0.4-23.3-3.8-35.2-3.7
				c-8.4,0.1-17.1,4-25,3.4c-8.6-0.8-15.6-6.4-24-8c-2.8-0.5-6.1-0.2-9.4,0.1c-6.8,0.7-13.9,1.4-17.3-5.5c9.5,3.3,11.8,2,18.2,0.7
				c5.3-1.1,13.6-2.2,31.4-0.6c14.3,7.1,35.1,0.3,49.2-5.4c-21-6-35-21.4-57.5-25c-21.1-3.3-39.7-13.1-60.4-16.8
				c-42.8-7.8-160.8-21.6-141.2-6.3c7.3,2.5,8.7,2.4,12.6,5.8c-21.4-3.9-42.2-6.6-63.9-8.3c-5.3-5.1-15.5-4.2-25.7-3.4
				c-5.1,0.4-10.1,0.8-14.6,0.5c-19.9-6.7-75.7-4.7-90.2-9.1c-0.3-1.3,3.4-1.3,7.9-1.2c5.9,0.1,13,0.2,13.6-3
				c-13.2-3.4-26.6-3.2-40.1-3c-8.6,0.1-17.2,0.2-25.7-0.6c-27.8-2.6,6.5-4.1-1-12.4c-1.2-0.1-3.9-0.1-7.2-0.1
				c-10.6,0.1-28,0.1-27.6-5.2c25.6,5.1,55.5,3.2,80.2-5.3c-3.9-5.1-11.9-5.5-17.6-6.5c-11.6-2.1-1.7-10.6-9.1-12.2
				C13,357.1,4.8,352.1-4,348c-7.8-0.8-17.3-0.8-24.1-5.3c8.1-3.7-7.9-4.6-8-8.1c1.6-0.4,4.5,0,7.5,0.3c5.8,0.7,12.4,1.4,13.9-2.9
				c-1.3-0.8-4.4-2.4-8.1-4.2c5.1-9-12.7-4.7-19.4-9.6c1-5.9-4.5-5.8-10-5.7c-5.1,0.1-10.3,0.1-10.5-4.5c5.1-1.5,10.7-0.3,16.2,0.9
				c6.3,1.4,12.5,2.7,17.7,0.2c13.3-6.6-14-9.4-15.3-11.8c22.9-3.3-2.1-5.5,0-16c1.6-0.3,3.8,0.7,6.1,1.6c4,1.6,8.2,3.3,10-1.6
				c-4.3-3.8-13.6-1.8-16-8c3.6-0.3,9.2,0.3,8-5.4c-7.3,0.6-18,0.3-21.4-7.9c42.1,5.5,85.7,4.1,128.1,8c39.1,3.6,83.6,10.8,122.9,11
				c3.5,0,6.7-0.4,5.4-3c10-5.8-36.9-1.6-45.9-11.3c13.5,1.7,27.4,6.7,40.6,0.7c-13.9-4.4-26.1-14.5-41.6-11.4
				c-21.1,4.1-39.5,3.3-60-1.1c-10.5-2.3-21.2-2-32-1.7c-8.6,0.2-17.2,0.4-25.9-0.6c-20.7-2.6-41.3-4-62.2-3.9
				c1.3-8.3,7.3-7.2,13.6-6.1c4.9,0.9,9.9,1.7,13.1-1.8c-8.6-2.9-17.7-6.5-24-13.4c7.7-0.2,15.5,1.8,23.4,3.8
				c11.9,3,23.9,6,35.3,1.5C26,213,3.3,223.2-6.6,209.1c2.8-0.6,6.9,0.1,11.1,0.8c6,0.9,12.3,1.9,15.6-0.8
				c-0.3-8.8-11.8-5.7-16-10.7c10.5-5.5,22.7,1.3,8-13.3c4.2-1,11.5-0.1,19.6,0.8c15.8,1.7,34.2,3.4,36.5-8.8
				c-9.2,2.1-18.8,0.9-28.1,0.4c-16-0.9-9.6-5.7-0.2-5.5c8,0.2,2.4-8.4-2-9.7c-7-2.1-21.9,1.6-25.8-6.6c6.7-1.7,9.8,2.7,16,2.7
				c-5.8-9.4-2.8-11.5,8.9-6.4c7.7,0.7,15.5,1.1,23.2,0.9c19.6-0.2,39.1-2.3,58.7-2.6c13.6-0.2,26.8,0.5,40.1,1.2
				c16.4,0.9,32.8,1.8,49.6,0.9c27.8-1.4,60.5,0.6,88.1,4.1c11.2,1.4,71.5,15.1,73.3-6.3c-2.3-2.5-5.9-2-9.8-1.4
				c-3.9,0.5-8.1,1.1-11.5-1.5c-8-6.3-24.5-2.4-33.8-2c-8.6,0.4-58.3-4.2-59.7-13.8c27.5,2,50.9-0.6,77.9,6.7c8,2.2,8.1,0.2,8.6-1.7
				c0.4-1.5,1-2.9,5.5-2.6c11.2,0.8,21,2.7,31.7,6.2c12.9,4.3,23.9,5.4,37.5,4.7c3.7-0.2,9.3,1.6,15.1,3.3c8,2.4,16.2,4.8,20,2.2
				c1.7-1.1,8.8,1.1,13.9,1.4c15.2,1.1,36.9,3.9,40.8,9.2c-7.4,4.3-14.1,2.5-22.3,0.7c-5.1-1.1-10.9-2.2-17.8-1.9
				c-9.9-2.4-14.1-14.4-21.6-2.4c-0.9,1.5-5.6,8.7,0.2,6.3c7.4-0.2,11.9,1.8,15.5,8.3c2.3,10.5,5.5,7.2,10.2,3.9
				c2.3-1.6,5.1-3.3,8.2-3.2c0.6,5,1.5,15.9,11.7,9.7c10.9,5.6,29.8,5.4,39.2,10.6c8,4.5,18.6,1.8,27.4,6.1
				c13.5,6.7,26.6,7.7,40.5,12.6c10.4,3.7,19.3,10.7,30.6,11.4c15,1,19.9,12.6,39.7,10.2c26.3-3.1,38.2,20.6,61.4,26
				c12.4,7.4,41.2,14.1,62.1,19.9c25.4,7.1,48.2,22.1,72.8,31.5c11.3,4.2,14.5,3.5,24,10.7c3.3,8,11.1,6.7,20,11.1
				c5.9,2.2,10.9,7.9,21.1,8.7c7.7,0.6,28.2,11.1,33.7,7c-12.7-14.4-30.8-22.1-47.6-30.5c-21.9-10.9-42-26-65.4-33.7
				c-14.7-4.9-29.4-17.2-44.5-24.7c-19.6-9.9-43.6-20.6-65.7-22.8c-0.1,4.6,13.9,13.9,9.4,15.5c-7.7-6.4-16.6-11.1-25.8-14.8
				c-22.5-9.3-46.6-13.6-69.6-21.8c-9.6-3.4-19-7.5-27.5-13.1c-4-2.6-7.8-5.6-11.2-9.1c-7.6-7.5-13.7-4.8-23.7-8.4
				c-9.4-3.4-17.6-2.4-26.5-5c-6.9-5.7-32.9-8-37.4-13.2c11.8,0.9,25.1,4.5,37.6,5.8c11.4,1.1,22.2,0,30.9,1.2
				c17.6,4,45.5,19.2,59.2,8.2c-11.2-5.8-50.5-6.6-47.6-23.2c17.4,6.1,33.5,7.4,50.1,15.8c10.8,1.7,38.3,14.6,45.2,11.5
				c4.8-2.2,11.4,1.9,20.5,6.1c7.7,3.5,17.3,7,29.3,6.7c14.9,0.2,39,17.9,52.6,13.3c-2.8,0-17.8-11-18.6-13.5
				c-2.2-6.2,36.6,11.6,39.2,12.4c17,5.1,41.9,17.7,51.6,14.5c-0.9-6.3-8.1-5.8-10.7-10.7c23.3,6.4,43.3,21.6,64,33.8
				c20.3,11.8,44.5,19.1,63,27c18.9,10.5,36,24.3,54.9,34.2c9.2,4.8,52.8,31.5,61.2,27.9c-5.2-9.8-19.3-22.4-30.1-25.9
				c-9.4-3-18.8-12.5-28.7-18.4c-4-2.4-47.8-24.2-42.7-30.5c5.2,6.9,12.2,7.8,19.1,11.7c9.6,5.3,14.1,10.7,24,15.6
				c18.7,9.4,43.6,24,61.1,35.4c29.7,18.3,56.9,45.2,81.2,69.6c5.2,5.2,10.2,8.4,15.2,13.7c11.7,12.5,29.2,27.9,44.9,43.1
				c11,10.6,16.7,15.5,20.7,26.3c3.5,9.5,16.4,1.1,12.7-5.8c-3.4-6.3-9.6-9-9-17.3c-8.9-2.9-38.3-28.4-28.6-39.5
				c5.5,18.3,18.6,25.7,31.4,39.1c2.1,6.3,10.9,12,16.4,17c-1.3,8.5,1.4,19.8,7.5,20.8c14.9-1,17.3,1.1,10.6,9.2
				c0,0-2.9,1.3-0.7,3.7c5.5,6.1,19.1,15.7,16.6,24.1c-1.6,0.1-2.7-1.2-3.9-2.5c-1.2-1.4-2.3-2.7-4.1-2.5c-16.4,2.5,3.1,9.3,5,9.8
				c9.4,2.7,8.3,4.2,8.3,15.3c0,10.4,20.2,28.9,20.2,38.9c2.8-1.6,6.2-5.3,8.7-7.3c1.8,3.4,1.5,10,3.2,13.3
				c14.1,26.8,29.3,47,43.7,72c4.4,7.7,11.5,18.7,16.9,23.6c0.2,5,2.3,8,6.3,9.2c-1,6.1-0.1,7.7,1.5,12.1c1,2.6,11.5,30.1,17.2,24
				c12.1-17.8-18.4-61.6-26.3-78.5c-3.9-8.3-42.6-64.2-37.8-68.4c0.7,2.3,1.6,2.3,2.7,0c-4.2-3.6-28-11.8-24.8-22.3
				c1.6-5.2-24.2-21.6-7.5-24.3c0.8,7.4,14.6,16.7,13.6,25.3c16.3,10.9,25.4,24,34.1,37.5c8.6,13.4,12.5,32.6,22.3,46.9
				c2.4,4.2,2.7,8.2,5.2,13c8.5,16.3,19.3,35.4,26.7,50.2c0.3-7.7-8-26.6,0-32.8c8.8,13,8.5,34.1,23.9,41.7
				c2.3,17.5,23.9,33.5,21.5,49.2c0.7-3.9-0.6-6.4-4.1-7.4c-8.8,0.3-2.7,14.1-1.4,17.4c6.2,15.7,9.4,30.6,24.7,40.6
				c-1.2,14.4,12.2,21.1,16.3,32.9c6.1,17.5,17.9,22.2,17.9,42.2c5.2,0.6,12.9,18,12.9,2.1c-0.1-17.2-8.6-38.9-16.3-54.4
				c-7.1-14.2-13.1-28.6-19.3-43.1c-6.1-14.2-22.8-32.9-14.7-49.2c1.9,12.8,7.8,34.1,19.4,44.1c1.3,1.1,2.5,1,3.8,0.9
				c1.1-0.1,2.2-0.2,3.5,0.4c-0.4-3.5-9.1-13.7-2.7-16c9.9,20.2,7.6,39.6,25,50.8c3.8,19,9.4,42.4,20.5,58.8
				c-8.3-1-12.9-42.1-24.1-34.7c3.8,27.8,13.7,59.3,22.6,86c1,5.3,1.2,10.7,5.2,14.3c-2.9,7.9-1.2,15.3,0.7,23.3
				c3.7,15.1,13.6,33,11.5,47.4c-3.4-3.1-3.6-13.5-10.8-11.6c-1.4,13.3,8,28.6,3.6,42c-1.8,5.4-2.3,22.3,9.9,23.1
				c-0.4-3.9-1.8-4.6,2.2-4.2C1613.7,1117.4,1619.5,1141.4,1617.6,1173.5 M1630.9,1173.5c-0.2,8.7-1.3,16.4-5.3,21.4
				C1625.1,1185.5,1626.4,1177.7,1630.9,1173.5 M1633.6,1114.7c2.5,10.7,5.5,27.7-2.7,34.7
				C1632.9,1137.5,1621.4,1120.2,1633.6,1114.7 M92.2,323.9c-1.1-7.7-18.3-6.6-28.8-5.5c-4.6,0.5-8,1-8,0.7
				C55.5,319.5,81.5,325.1,92.2,323.9 M129.6,323.9c-8.8,3.6,4,11.6,14.4,7.6c13.5,3.8,35.3,8.9,41.8,3.1
				C170.1,328,153.5,322.3,129.6,323.9 M263.2,278.5c5.3-12-42.3-14.5-50.6-11.6c6.7,6.6-6.2,7.1-9.4,8.3c-5.2,4.9,9.7,7.3,20.2,5.8
				C241.5,284,262.5,283.4,263.2,278.5 M634.5,286.6c1.3-0.2,2.6-0.4,3.9-0.6c2.8-2.5-26.6-16.6-30.3-18.4
				c-3.3-1.6-19.2-3.4-18.5-8.5c0.3-2.1,7.1-8.4,2.2-9.9c-6.5-5-15.3-4.5-24-4c-6.2,0.4-12.4,0.7-17.6-0.9
				c-6.9-2.1-8.8-4.1-9.9-10.4c-0.6-3.9-17.6-8.7-21.9-11.1c-11.6-6.5-25.2-3.4-37.3-8.3c-8.4-3.5-18.6-5.3-28.8-7.3
				c-19-3.7-38-8-57.1-11.2c-16.5-2.7-57.3-15.2-72.4-7.6c-0.2,0.1,5.6,7.6,4.5,10.1c-20.5-0.9-47.8-4.5-68.4-3.1
				c4.9,8,87.6,25.7,89.8,23c7.6-1.8,14.4,0.2,20.2,2.3c4.7,1.6,8.7,3.2,12,2.9c10,3.4,20.2,3.3,30.5,3.2c8.9-0.1,17.9-0.2,26.7,2.1
				c8.6,2.2,16.8,5,25.5,1c5.3,5.5,14.2,5.4,21.1,7.2c10.1,4.9,32.5,12.9,46.6,11.9c9.7,0.3,12.2,5.2,13.6,7.6
				c4.5,7.7,19.8,5,27.7,6.8C594.2,268.3,614.3,277.5,634.5,286.6 M901.6,259.8c10.8-2.3-11.3-10.2-10.7-16
				c-7.6,3.1-17.8-1.6-23.4-6.4c-5.3-1.8-11.2-0.2-16.7,1.1C856.8,250.3,885.5,250.9,901.6,259.8 M1012.7,320.5
				c12.7,5.7,26,10.8,38.6,16.8c-27.5-23.5-58.8-42.1-90.8-58.8c-18.7,9.3,39.5,36.3,43.6,38.1L1012.7,320.5z M1051.3,337.3
				c1.1,2.4,2.1,1.6,1.9,0.8C1053,337.7,1052.4,337.2,1051.3,337.3 M1291.7,497.6c11-3.3-1-7.8-2.7-13.3
				C1273.5,486.8,1291.6,493.1,1291.7,497.6"/>
		</defs>
		<clipPath id="SVGID_2_">
			<use xlink:href="#SVGID_1_"  style="overflow:visible;"/>
		</clipPath>
		<g class="st0">
			<g>
				<defs>
					<path id="SVGID_3_" d="M255.2,131.6c1.4,9.2,47.3,13.8,58.5,13.8c0.5,0,0.9,0,1.2,0c5.2-0.2,12.7-1.6,19.8-1.6
						c5.4,0,10.6,0.8,14.1,3.6c1.9,1.5,4.2,1.9,6.5,1.9c1.6,0,3.3-0.2,4.9-0.4c1.6-0.2,3.2-0.4,4.7-0.4c2,0,3.8,0.4,5.2,1.9
						c-0.8,9.2-12.3,11.9-26.2,11.9c-18.4,0-40.7-4.8-47.1-5.6c-21.6-2.7-46.4-4.6-69.4-4.6c-6.4,0-12.6,0.1-18.7,0.4
						c-4.8,0.2-9.6,0.4-14.4,0.4c-11.8,0-23.5-0.7-35.2-1.3c-11.7-0.6-23.4-1.3-35.4-1.3c-1.6,0-3.1,0-4.7,0
						c-19.6,0.2-39.1,2.3-58.7,2.6c-1,0-1.9,0-2.9,0c-6.8,0-13.6-0.3-20.3-1c-4.1-1.8-7.2-2.7-9.1-2.7c-3.6,0-3.5,3,0.3,9.1
						c-5.2,0-8.3-3-13-3c-0.9,0-1.9,0.1-3,0.4c3.9,8.1,18.9,4.5,25.8,6.6c4.4,1.4,9.9,9.7,2.3,9.7h-0.3c-0.3,0-0.5,0-0.8,0
						c-9,0-14.6,4.6,0.9,5.5c5.3,0.3,10.6,0.8,15.9,0.8c4.1,0,8.1-0.3,12.1-1.2c-1.5,8-9.8,10-19.7,10c-5.4,0-11.3-0.6-16.8-1.2
						c-5.5-0.6-10.8-1.2-14.8-1.2c-1.8,0-3.4,0.1-4.7,0.4c14.7,14.7,2.4,7.9-8,13.3c4.3,5,15.7,1.9,16,10.7
						c-1.6,1.3-3.9,1.7-6.6,1.7c-2.8,0-6-0.5-9-1c-3.1-0.5-6.1-1-8.6-1c-0.9,0-1.7,0.1-2.5,0.2c9.9,14.1,32.6,3.9,40.1,21.3
						c-4.2,1.6-8.4,2.3-12.7,2.3c-7.5,0-15.1-1.9-22.6-3.8c-7.6-1.9-15.1-3.8-22.5-3.8c-0.3,0-0.6,0-0.9,0
						c6.3,6.9,15.4,10.5,24,13.4c-1.8,1.9-4.1,2.5-6.7,2.5c-2.1,0-4.3-0.4-6.4-0.8c-2.2-0.4-4.3-0.8-6.2-0.8c-3.7,0-6.6,1.4-7.4,6.9
						c0.9,0,1.7,0,2.6,0c20,0,39.8,1.5,59.6,3.9c5.1,0.6,10.1,0.8,15.1,0.8c3.6,0,7.2-0.1,10.7-0.2c3.6-0.1,7.1-0.2,10.7-0.2
						c7.2,0,14.3,0.4,21.3,1.9c11.5,2.5,22.3,3.8,33.2,3.8c8.7,0,17.5-0.9,26.8-2.7c2-0.4,3.9-0.6,5.7-0.6c12.9,0,23.7,8.2,35.9,12
						c-4.7,2.2-9.4,2.9-14.2,2.9c-8.7,0-17.6-2.5-26.3-3.6c9,9.8,56,5.6,45.9,11.3c1.3,2.5-1.8,3-5.2,3h-0.2
						c-39.4-0.2-83.8-7.5-122.9-11c-42.4-3.9-86-2.4-128.1-8c2.7,6.7,10.2,8.1,16.9,8.1c1.6,0,3.1-0.1,4.5-0.2
						c1.2,5.8-4.4,5.2-8,5.4c2.4,6.2,11.7,4.2,16,8c-0.9,2.4-2.4,3.2-4.1,3.2c-1.8,0-3.8-0.8-5.8-1.6c-2-0.8-3.9-1.6-5.5-1.6
						c-0.2,0-0.4,0-0.6,0c-2.1,10.6,22.9,12.8,0,16c1.3,2.4,28.6,5.2,15.3,11.8c-2.1,1.1-4.5,1.4-6.9,1.4c-3.5,0-7.1-0.8-10.9-1.6
						c-3.7-0.8-7.5-1.6-11-1.6c-1.8,0-3.5,0.2-5.2,0.7c0.2,4.1,4.3,4.5,8.9,4.5c0.5,0,1.1,0,1.7,0c0.6,0,1.1,0,1.7,0
						c4.9,0,9.3,0.5,8.4,5.7c6.7,5,24.5,0.6,19.4,9.6c3.7,1.8,6.8,3.4,8.1,4.2c-0.9,2.7-3.9,3.4-7.4,3.4c-2.1,0-4.4-0.2-6.5-0.5
						c-2.1-0.2-4.2-0.5-5.7-0.5c-0.7,0-1.3,0.1-1.8,0.2c0.1,3.6,16.1,4.4,8,8.1c6.8,4.6,16.3,4.6,24.1,5.3c8.8,4.2,17,9.1,26.7,10.7
						c7.4,1.6-2.5,10.1,9.1,12.2c5.7,1,13.7,1.4,17.6,6.5c-15.6,5.4-33.3,8.1-50.7,8.1c-10.1,0-20.1-0.9-29.5-2.8
						c-0.4,4.8,13.5,5.3,24,5.3c1.3,0,2.5,0,3.6,0c1.1,0,2.2,0,3.1,0c1.8,0,3.2,0,4,0.1c7.5,8.3-26.7,9.8,1,12.4
						c5.6,0.5,11.2,0.7,16.9,0.7c2.9,0,5.9,0,8.8-0.1c2.9,0,5.9-0.1,8.8-0.1c10.5,0,21,0.5,31.2,3.1c-0.5,2.6-5.6,3-10.7,3
						c-1,0-2,0-2.9,0c-0.9,0-1.9,0-2.7,0c-3.2,0-5.4,0.2-5.2,1.2c14.5,4.4,70.3,2.4,90.2,9.1c1.1,0.1,2.2,0.1,3.4,0.1
						c3.6,0,7.4-0.3,11.2-0.6c3.8-0.3,7.6-0.6,11.2-0.6c5.9,0,11.2,0.9,14.5,4c21.7,1.8,42.5,4.4,63.9,8.3
						c-3.8-3.3-5.3-3.3-12.6-5.8c-6.4-5,1.9-6.9,17.5-6.9c32.1,0,94.9,8,123.7,13.2c20.7,3.8,39.3,13.5,60.4,16.8
						c22.5,3.5,36.5,18.9,57.5,25c-9.8,4-22.8,8.5-34.6,8.5c-5.2,0-10.2-0.9-14.6-3c-6.5-0.6-11.7-0.8-15.9-0.8
						c-7.5,0-12.1,0.7-15.5,1.4c-3.4,0.7-5.7,1.4-8.4,1.4c-2.4,0-5.3-0.6-9.8-2.1c2.3,4.8,6.5,5.9,11.1,5.9c2,0,4.1-0.2,6.2-0.4
						c2.1-0.2,4.1-0.4,6.1-0.4c1.2,0,2.3,0.1,3.4,0.3c8.4,1.6,15.4,7.2,24,8c0.6,0,1.2,0.1,1.8,0.1c7.4,0,15.4-3.3,23.2-3.4
						c0.2,0,0.5,0,0.7,0c11.7,0,23.1,3.3,34.4,3.7c2.2,0.1,4.7,0.1,7.4,0.1c2.3,0,4.9,0,7.5,0c2.7,0,5.5,0,8.4,0
						c29.3,0,69.4,1.6,79.4,21c-9.3,1.5-18.8,2.2-28.4,2.2c-19.2,0-38.8-2.5-58.2-4.9c-19.5-2.5-38.8-4.9-57.6-4.9
						c-2.2,0-4.3,0-6.5,0.1c-2.5,0.1,3.2,3.5-7.3,3.5H447c-0.8,0-1.6,0-2.3,0c-12.2,0-24.4-2.6-36.6-2.8c-7.3-0.1-14.6-0.5-22-1
						c-1.6,3.5-0.8,5.2,2.4,5.2c0.2,0,0.3,0,0.5,0c14.3,0.1,35.8,0.3,50.5,5.4c-0.7,4.2-3.4,5.4-6.6,5.4c-4.1,0-9.1-2-12-2.7
						c0,8.5-2.3,10.4-6.3,10.4c-1.6,0-3.5-0.3-5.7-0.6c-2.2-0.3-4.6-0.6-7.2-0.6c-1.4,0-2.8,0.1-4.2,0.3c-3.2,0.4-5.8,0.9-8.1,0.9
						c-3.3,0-6.2-0.9-9.6-4c-2.6-2.3-6.7-3.8-10.8-3.8c-3.1,0-6.1,0.9-8.2,3.1c-3.6,3.8-6.7,4.7-10.7,4.7c-3.2,0-6.9-0.6-12-0.8
						c-12.7-0.5-25.4-0.7-38.2-0.7c-40.7,0-81.5,2.1-122.1,4.4c3.2,2.7,7,3.5,11.1,3.5c2.5,0,5.2-0.3,7.9-0.6
						c2.7-0.3,5.3-0.6,7.9-0.6c3.8,0,7.5,0.7,10.6,2.9c-3.7,5.3-9.1,7-15.4,7c-5.7,0-12.1-1.4-18.6-2.8c-6.5-1.4-13-2.8-19-2.8
						c-5.2,0-9.9,1.1-13.8,4.1h0c0.3,0,6.4,2,12.6,4c6.3,2,12.8,4,13.9,4c0.1,0,0.1,0,0.1,0c-9.8,6.4-38.7-3.6-40.1,13.4
						c-2.2-0.6-4.3-0.9-6.4-0.9c-3.6,0-7.1,0.7-10.7,1.4c-3.5,0.7-7.1,1.4-10.7,1.4c-2.5,0-5-0.3-7.6-1.2
						c-3.2-1.1-11.6-2.4-18.8-2.4c-5,0-9.4,0.6-11.2,2.2c0.5-0.5,1.8-0.7,3.6-0.7c12.3,0,50.3,8.8,57.8,10c20.3,3.2,30.4,4.9,9.3,14
						c22.9,5.2,46,8.9,69.5,10.7c-2.2,2.8-6,3.6-10.3,3.6c-2.7,0-5.5-0.3-8.3-0.6c-2.8-0.3-5.4-0.6-7.7-0.6c-1.1,0-2.1,0.1-3,0.3
						c5.1,3.7,14.9,4.9,26.2,4.9c20.8,0,46.6-4,57.2-4h0.4c15.5,0,31,1.1,46.5,2.3c15.5,1.1,31,2.3,46.5,2.3c0.7,0,1.5,0,2.2,0
						c0.9,0,1.7,0,2.6,0c33.7,0,69.6,7.3,103.4,9.3c18.1,1.1,36.2,1.5,54.3,2.1c9.1,0.3,17.6,1.9,24.2,4.9c5.5,2.6,9,6.4,15.9,7.7
						c-2.8,4.6-7.7,6-13.2,6c-4.2,0-8.7-0.8-13.1-1.6c-4.4-0.8-8.5-1.6-11.9-1.6c-0.2,0-0.5,0-0.7,0c-19.1,0.7-38.2,2.5-57.3,2.5
						c-17.9,0-35.8-2.1-53.7-2.1c-5.2,0-10.5,0.2-15.8,0.6c-17.1,1.4-33.6,5.6-50.8,6.8c3.5,2,7.5,2.7,11.6,2.7
						c4.7,0,9.7-0.9,14.7-1.7c5-0.9,10.1-1.7,14.9-1.7c4.6,0,8.9,0.8,12.8,3.1c8.1,1.6,16.2,2.1,24.3,2.1c4.1,0,8.2-0.1,12.4-0.2
						c4.2-0.1,8.3-0.2,12.5-0.2c0.7,0,1.4,0,2.1,0c39.5,0.4,78.6,2.4,118.1,4.3c10,0.4,20.2,1.3,30.3,2.4c0.5,0.1,1,0.1,1.5,0.1
						c1.8,0,3.9-0.3,6-0.5c2.1-0.2,4.3-0.5,6.1-0.5c3.1,0,5.2,0.7,4.5,3.4c44.8,6.9,89.3,20.4,130,39.2
						c31.6,14.5,63.3,29.1,91.5,49.8c6.5,4.8,11.3,10.1,16.8,15.9c5.9,6.3,12.6,5.4,18.9,10.3c9.2,6.9,21.7,16.8,29.4,24.1
						c11.7,10.3,23.5,23.1,36.2,32c4.7,3.3,13.6,16.3,17.3,17.4c10.5,3.2,15.4,22.7,21.4,30.7c8.1,11.1,16.6,16.7,22.6,29.7
						c12.5,26.9,33.1,51.5,45,79.8c12.7,30.2,12.4,69.1,3,100.3c-14.7,48.9-51.2,96.8-99.1,114.8c-14.6,5.5-28.1,15.2-42,22.2
						c-17,8.3-35.5,15.3-52.6,23.4c-7.4,3.5-11.3,4.1-16.6,4.1c-2.6,0-5.6-0.1-9.5-0.1c-7.8,5.5-19.6,9.3-28.5,12.6
						c-17.3,6.4-35.2,10.8-52.4,17.5c-10.4,4.1-18.7,12.2-29.2,15.7c-26.3,8.8-54.9,12.1-81.3,21.3c-15.9,5.5-28.3,16.3-44,19.8
						c-15.2,3.3-28.3,11.7-42.7,17.1c0.6,0.3,2.1,2,3.5,3.7c1.2,1.4,2.4,2.9,2.8,3.5c1.7,0.7,3.5,1.1,5.4,1.1c0.5,0,0.9,0,1.4-0.1
						c-5,5-0.6,7.1,2.7,10.7c-5.8,8.5-19.2,4.7-26.7,10.7c1.7,2.3,3.8,3.1,6.1,3.1c2.4,0,5.1-0.9,7.8-1.7c2.7-0.9,5.4-1.7,7.8-1.7
						c0.8,0,1.6,0.1,2.3,0.3c-6.4,9.7-19.8,11.2-29.4,16c0.9,3.2,2.3,4.1,4,4.1c1.1,0,2.4-0.4,3.8-0.8c1.4-0.4,2.8-0.8,4.3-0.8
						c0.4,0,0.9,0,1.3,0.1c-8.4,5.3-18.2,8.2-26.7,13.4c-0.2,2.5,1.9,3.1,4.5,3.1c1.3,0,2.7-0.2,4.1-0.3c1.3-0.2,2.6-0.3,3.5-0.3
						c0.5,0,0.9,0,1.2,0.2c-5.1,9-17.4,8.8-24,16c0.6,0,1.3,0,1.9,0c27,0,48.3-13.3,72.9-16.1c-4.2,3.6-9.1,5.4-14.6,5.4
						c-0.5,0-0.9,0-1.4,0c29.3,23.2-44.3,24.4-39.7,38.5c1.1,1.7,3.9,2.1,7.1,2.1c1.1,0,2.2,0,3.3-0.1c1.1,0,2.3-0.1,3.3-0.1
						c4.7,0,8.7,0.7,8.1,5.4c-3.8,2.7-44.6,19.2-27.6,21c-10.8,5.2-21.7,10.1-32.1,16c2.4,2.1,5.2,2.8,8.1,2.8
						c7.8,0,16.9-5.4,23.9-5.5c-1.2,8.3-12.2,7.8-13.4,16c3.4,1.1,6.9,1.5,10.3,1.5c8.9,0,17.7-3.1,26.5-6.2
						c8.8-3.1,17.7-6.2,26.8-6.2c1.1,0,2.2,0,3.2,0.1c-4.5,10.5-32.4,9.3-48.1,21.4c-14.9,10.8-9.9,13.2-0.9,13.2
						c3.4,0,7.3-0.3,10.9-0.7c3.6-0.3,6.9-0.7,8.9-0.7c1.5,0,2.4,0.2,2.2,0.7c-1.4,2.5-3.5,3.7-6.1,3.7c-0.5,0-1.1-0.1-1.6-0.2
						c1.8,1.5,3.9,2,6.3,2c7.6,0,17.3-6.1,23.1-7.4c0.3,3.9,3.1,5.1,6.8,5.1c6.9,0,17-4.4,20.5-4.9c1.5-0.2,2.7-0.3,3.7-0.3
						c4.4,0,4.8,1.9,5,3.7c0.3,1.9,0.4,3.8,4.2,3.8c0.9,0,2.1-0.1,3.5-0.4c3.3-0.6,10.1-3.6,15.3-3.6c2.1,0,3.9,0.5,5.1,1.9
						c11.2,2-28,8.8-50.8,18.7c2.1,1.3,4.5,1.8,7.1,1.8c9.3,0,21.3-6.4,30.3-7.2c-0.5,9.4-24.7,16.8-46.2,22
						c-12.9,3.1-20.6,7.5-29.1,7.5c-0.7,0-1.5,0-2.2-0.1c1.8,1.7,4.1,2.3,6.8,2.3c5.3,0,11.9-2.6,18.3-5.2
						c6.4-2.6,12.6-5.2,17.1-5.2c0.2,0,0.3,0,0.5,0c-9.3,8.4-22.6,10.4-32,18.7c0.9,0.4,2.3,0.5,4.1,0.5c11.2,0,37.5-6,37.6-6.4
						c-0.9,3.8-6.7,6.7-9.7,8.5c1.1,0.1,2.2,0.2,3.3,0.2c17.5,0,31.5-15,47.9-15.8c13.2-0.6,24.2-8.5,37.4-8.5c0.7,0,1.4,0,2.2,0.1
						c-4.8,2.1-5.3,7.6-2,7.6c1.1,0,2.7-0.6,4.7-2.2c6,6.1-15.8,12-18.7,13.3c2.8,3.7,6.5,5.5,10.9,5.5c0.8,0,1.6-0.1,2.5-0.2
						c-8.4,8.3-19.1,13.5-30.4,16.6c-9.8,2.6-13,12.7-23,12.8c1.4,1.1,3.1,1.5,5,1.5c6,0,13.7-4.4,17.4-6.6c2.2-1.3,3.9-1.7,5.5-1.7
						c0.9,0,1.8,0.1,2.7,0.3c0.9,0.2,1.8,0.3,2.7,0.3c1.6,0,3.4-0.4,5.9-1.8c2-1.1,27.4-4.2,32.7-4.2c0.6,0,0.9,0,0.9,0.1
						c0,0,0,0,0,0c-1.1,0-21.9,17-24.7,17.3c1,1.8,2.6,2.7,4.6,2.7c0.2,0,0.5,0,0.8,0c-2.1,8.8-17.2,3.9-19,8.9
						c0.2-0.6,45.1-6.3,55.3-6.3c0.5,0,0.8,0,1.1,0c3.2,19.4-61.4,10.4-56.1,26.7c0.6,0.1,1.2,0.1,1.8,0.1c2.6,0,4.8-0.8,7-1.6
						c2.2-0.8,4.4-1.6,6.9-1.6c0.9,0,1.9,0.1,2.9,0.4c-13,8-28.3,11.7-42.7,16c0.2,2.4,1.3,3.2,2.8,3.2c2.7,0,6.4-2.5,7.9-3.2
						c-6,11.3-33.8,12.7-34.7,21.4c2.7,1.5,5.4,2.2,8,2.2c10.7,0,20.7-10.4,29.4-12.8c6-1.8,41.2-4.8,41.6-5.6
						c-1.4,3.2-21.4,6-12.8,12.1c1.2,0.9,2.5,1.2,3.8,1.2c2,0,4-0.7,6.1-1.3c2.1-0.7,4.2-1.3,6.2-1.3c2.1,0,4.1,0.7,5.9,3
						c-16.7,5.9-34.2,9.5-50.8,16c2.8,0.5,5.5,0.7,8.1,0.7c12.5,0,22.2-5.2,34.7-6.1c0.8-0.1,1.7-0.1,2.5-0.1
						c4.1,0,8.2,0.7,12.3,1.4c4.1,0.7,8.2,1.4,12.3,1.4c2.7,0,5.4-0.3,8-1.1c4-1.2,6.9-2.3,9.5-2.3c3,0,5.8,1.4,9.6,5.8
						c3.1,3.5,2.3,12.7,6,12.7c1.4,0,3.3-1.2,6.3-4.4c2.4-2.5,10.4-3.5,18.8-3.5c9.7,0,19.9,1.3,22.1,3c0.6,0.5,1.4,0.7,2.2,0.7
						c4.9,0,12.8-7.4,13.3-10.8c5.9,4.4,13.3,5.6,20.5,5.6c2.1,0,4.2-0.1,6.2-0.3c2.8,3.1-2.8,5.5-4.7,5.5c-0.3,0-0.5-0.1-0.6-0.2
						c1.4,2.9,4.3,3.1,6.9,3.1h1.6c3.4,0,5.6,0.5,2.2,7.6h18.7c-3.8,12.2-22.4,10.5-32,13.4c4,0.7,8.1,1,12.2,1
						c7.1,0,14.2-0.9,21-2.1c3.5-0.7,22.2-9.8,26.3-9.8c0.3,0,0.5,0,0.7,0.2c3.6,3,4.6,4.2,5.8,4.2c1.3,0,2.9-1.4,8.5-3.5
						c1.9-0.7,3.4-1,4.6-1c2.8,0,4.2,1.5,5.8,3c1.6,1.5,3.3,3,6.6,3c0.6,0,1.3,0,2-0.2c-14.4,8.7-30.2,14.7-46.9,17.2
						c-5.2,0.8-42.4-1.2-33.3,9.5c-8.9,1.8-17.7,4.3-26.7,5.3c9,13.1-32.4,15.6-42.3,17.7c-6.2,1.3-47.4,11.2-45.4,12.4
						c0.2,0.1,0.5,0.2,0.9,0.2c1.4,0,4-0.6,6.7-1.1c2.8-0.6,5.7-1.1,7.8-1.1c0.7,0,1.4,0.1,1.9,0.2c1.8,0.6,3.4,0.8,5,0.8
						c4.9,0,8.8-2.6,13.8-5.2c16-8.5,36.9-6.1,54.3-10.5c-12.3,5.6-24.6,11.4-37.4,16c2,0.5,4,0.6,6,0.6c6.9,0,14.3-2.2,21.1-4.4
						c6.9-2.2,13.3-4.4,18.2-4.4c0.7,0,1.4,0,2.1,0.2c6.2-1.7,12.5-3,18.9-3c1.9,0,3.8,0.1,5.7,0.4c-5.8,8.3-21,5.9-21.4,18.7
						c5.8-0.9,11.8-4.1,17.8-4c2.1,0,4.2,0.4,6.3,1.4c-3,9.4-51.1,6.2-48.1,16c20.5-1.6,39.9-4.5,58.8-8c3.3-0.6,6.3-0.9,9.1-0.9
						c12.6,0,21.7,5.3,36.3,6.2c-3.2,1.7-5,4.3-5.3,8c0.8,0.1,1.6,0.1,2.5,0.1c2.4,0,5.2-0.2,7.9-0.5c2.8-0.2,5.7-0.5,8.5-0.5
						c5,0,9.7,0.7,13.2,3.5c-11.9,9.9-31.1,7.9-45.4,10.7c1.9,3.4,5,4.4,8.6,4.4c2.5,0,5.3-0.5,8-1c2.7-0.5,5.4-1,7.7-1
						c0.8,0,1.6,0.1,2.4,0.2c-1.2,10.6-13.2,11.6-21.4,13.4c2.3,1.5,4.6,2.1,6.9,2.1c5.9,0,11.6-4.3,16.8-8.5
						c5.3-4.3,10.1-8.5,14.4-8.5c1.4,0,2.8,0.5,4,1.6c-0.2,1.5-0.8,2.9-1.7,4.2c-0.1,0.9,4.5,1.7,9,1.7c5.3,0,10.4-1.2,7-5
						c-0.6-0.7-1.8-0.7-3.1-0.7h-0.8c-0.3,0-0.5,0-0.8,0c-2.2,0-4.1-0.2-3.7-2.9c0.3-2.7,2.5-3.1,5-3.1c0.5,0,1.1,0,1.7,0
						c0.6,0,1.1,0,1.7,0c2.3,0,4.3-0.3,5-2.3c-0.9-2.2-2-2.9-3.3-2.9c-1.1,0-2.4,0.6-3.6,1.2c-1.2,0.6-2.5,1.2-3.6,1.2
						c-1.1,0-2-0.5-2.8-2.1c-5.2-5.7,0.7-10.7-10.1-10.7c-0.2,0-0.4,0-0.6,0c2.3-5.3,5.7-7,9.6-7c6.3,0,13.8,4.6,19.9,5.9
						c0.8,0.2,2.1,0.3,3.6,0.3c4.9,0,11.2-1.5,5.1-7.3c-2.5-2.4-6.3-2.9-10.2-2.9c-1.5,0-3.1,0.1-4.5,0.2c-1.5,0.1-2.8,0.2-4.1,0.2
						h-0.6c2-6.5,10.8-6.7,15.9-8.1c1.9-1.8,3.4-2.7,4.7-2.7c1.8,0,3,1.9,3.6,5.7c1.9,1.6,4.2,2.2,6.6,2.2c5.9,0,12.9-3.4,17.2-5.1
						c1.5,8.3-2.4,10,1.4,18.6c1.1,2.5,2.4,2.8,3.6,2.8c0.2,0,0.4,0,0.6,0c0.2,0,0.4,0,0.6,0c1.3,0,2.5,0.4,3,4.1
						c0,3,0.8,5.7,2.5,8.2c1.6,1.5,2.9,2.1,3.7,2.1c5.1,0-2-22.3-2-22.5c-0.4-10,10.7-8.4,16-13.3c-0.4,6.7-7.6,8.7,0,13.3
						c-0.7,1.3-1.7,2.1-2.9,2.5c1.7,0.5,4,1.6,5.9,2.6c2.6,1.5,4.5,3,3,3c-0.1,0-0.3,0-0.5,0c0.8,0.1,1.6,0.2,2.4,0.2
						c5.6,0,9.2-2.8,9.9-5.5c0.7-2.7-1.4-5.5-7.2-5.5c-0.7,0-1.6,0-2.4,0.1c4.2-7-2.4-12.2-1.1-19c0.5-2.7,4.7-5.3,8-5.3
						c2.1,0,3.9,1,4.1,3.7c0.6,7.4-2.9,9.2,5,11.5c5,1.4,5.9,4.7,2.7,9.1c13.9-0.3,12-17.4,16.8-26.2c2.3-4.2,6.2-5.9,10.7-5.9
						c0.6,0,1.2,0,1.8,0.1c7.7,2.7-0.6,11.6,0,16c4.4-4.5,15.2-1,13.4-10.7c2.2,0.8,4,1.3,5.5,1.3c3.4,0,5.6-2.1,7.9-6.6
						c3.5,3.2,6.6,4.5,9.6,4.5c10,0,17.3-15.4,25.2-25.9c5.5,1.1,7.2,2.6,8.6,2.6c1.4,0,2.5-1.8,7.4-8c10.9-1.1,22-4.8,29.4-13.3
						c1.3,5,4.7,6.5,8.7,6.5c2.3,0,4.9-0.5,7.4-1.2c-5.6,13.1-21,16.2-29.4,26.7c0.8,0.2,1.5,0.2,2.3,0.2c7.5,0,15.8-7.3,21.4-10.6
						c12.3-7.1,11.2-7.1,19-18.2c2.2-3.2,3.7-4.3,4.7-4.3c2.8,0,2.2,8.7,6,8.8c7-2.1,12-7.1,17.9-11.1c10.1-6.8,15.5-7.5,24.5-16.9
						c5.5-5.7,11.6-10.8,18.7-14.5c12.7-6.6,15.7-10.5,26.6-19.9c7-6,14.9-10.6,22.6-15.7c-0.6-1.7-1.8-2.3-3.3-2.3
						c-1.8,0-4.2,0.9-6.4,1.8c-2.2,0.9-4.4,1.8-6.1,1.8c-2.2,0-3.4-1.7-1.9-7.4c2.9-11.8,23.1-5.7,31.3-9.7
						c8.4-4.1,11.9-20.5,19.4-20.5c0.2,0,0.3,0,0.5,0c0.5,0,0.9,0.1,1.3,0.1c5.4,0,5.8-3.3,5.4-6.6c-0.4-3.3-1.5-6.6,0.7-6.6h0.2
						c2.3-2.8,10.3-8.9,14.5-8.9c1.4,0,2.3,0.7,2.6,2.3c6.4-1.4,7.8-3,2.4-9.7c10.8-4.5,21.1-13.5,28.5-22.2
						c10.4-12.3,27.5-27.1,35.7-42.1c19.9-10.4,25.6-33.5,44-44.9c10.1-7.5,14.7-27.4,19.1-27.4c0.2,0,0.5,0.1,0.7,0.2
						c2.2-4.4,3.5-8,2.7-9.7c-0.2,0-0.4,0-0.7,0c-8.1,0-15.1,18.3-17.7,25.4c-2.8,7.9-9.8,14.1-16.3,19c-8.7,6.5-6.1,8.7-12.6,15.5
						c-16.1,16.8-36.8,45.6-59.4,56.7c-0.5,0.1-1,0.1-1.4,0.1c-8.2,0,4.3-12.8,7.9-16.4c-2.8-9.6,6.3-6.6,9.1-9.4
						c5.7-7.2,1.9-10.2,11.5-17.4c7.3-5.5,14.2-8.3,21.2-14.3c-0.2-1-0.6-1.4-1-1.4c-0.6,0-1.4,0.7-2.3,1.5c-0.9,0.8-2,1.5-3.3,1.5
						c-0.5,0-1-0.1-1.5-0.4c-11.4-9.9,21.2-14.5,18.1-22.1c-3.4-8.5-1.9-10,1.5-10c0.9,0,1.9,0.1,3,0.2c1.1,0.1,2.3,0.2,3.5,0.2
						c0.7,0,1.4,0,2.2-0.1c1.4-3.2-5-3.6-5.6-4.9c-2-5.7,7.7-11.9,10.8-15.3c7-7.8,9.4-22.8,20.5-25.5c1.6-15.3,13.1-23.9,18.2-37.1
						c10.8-35.6,15.4-40.6,19.5-40.6c0.6,0,1.2,0.1,1.9,0.3c16.9,8.9-7.5,33.2-8,45.4c15.1-20.4,16.2-42.9,22.4-54.1
						c5.9-10.8,6.2-22.5,9.5-34c2.7-9.2,5.5-18.8,7.7-28.2c4.9-21.2,7.1-42.9,10.9-64.5c2.2-12.3,4.4-24.2,7.7-36.2
						c2.6-9.3,2.7-14,3.1-20.6c1.9-32-3.9-56-3.2-95c-0.6-0.1-1.1-0.1-1.5-0.1c-2,0-1,1-0.7,4.3c-12.2-0.8-11.6-17.7-9.9-23.1
						c4.4-13.3-5-28.6-3.6-42c0.6-0.2,1.1-0.2,1.6-0.2c5.6,0,6.1,9,9.2,11.8c2-14.4-7.8-32.3-11.5-47.4c-1.9-8-3.5-15.4-0.7-23.3
						c-4.1-3.5-4.2-8.9-5.2-14.3c-8.9-26.7-18.9-58.2-22.6-86c0.9-0.6,1.8-0.9,2.6-0.9c9.3,0,13.8,34.7,21.4,35.6
						c-11.1-16.4-16.6-39.7-20.5-58.8c-17.3-11.2-15-30.5-25-50.8c-6.4,2.3,2.3,12.6,2.7,16c-0.9-0.4-1.6-0.5-2.4-0.5
						c-0.4,0-0.8,0-1.2,0.1c-0.4,0-0.7,0.1-1.1,0.1c-0.9,0-1.8-0.2-2.7-1c-11.6-10-17.4-31.2-19.4-44.1
						c-8.1,16.3,8.7,34.9,14.7,49.2c6.2,14.5,12.2,29,19.3,43.1c7.8,15.5,16.3,37.2,16.3,54.4c0,5-0.7,6.7-1.9,6.7
						c-2.6,0-7.4-8.3-11-8.8c0-20-11.8-24.7-17.9-42.2c-4.1-11.9-17.5-18.5-16.3-32.9c-15.3-10-18.6-25-24.7-40.6
						c-1.3-3.3-7.4-17.2,1.4-17.4c2.7,0.7,4.1,2.4,4.3,4.9c-0.1-14.9-19.6-30.1-21.7-46.7c-15.4-7.5-15.1-28.7-23.9-41.7
						c-8,6.2,0.3,25.1,0,32.8c-7.4-14.7-18.1-33.8-26.7-50.2c-2.5-4.7-2.8-8.8-5.2-13c-9.7-14.2-13.7-33.5-22.3-46.9
						c-8.7-13.5-17.8-26.7-34.1-37.5c1-8.7-12.8-17.9-13.6-25.3c-16.6,2.7,9.1,19.1,7.5,24.3c-3.2,10.5,20.6,18.7,24.8,22.3
						c-0.5,1.1-1,1.7-1.4,1.7c-0.4,0-0.9-0.6-1.2-1.7c-4.8,4.2,33.9,60,37.8,68.4c7.9,16.8,38.4,60.6,26.3,78.5
						c-0.6,0.6-1.2,0.9-1.9,0.9c-5.9,0-14.4-22.5-15.4-24.8c-1.6-4.4-2.4-6.1-1.5-12.1c-4-1.1-6.1-4.2-6.3-9.2
						c-5.4-4.9-12.5-15.9-16.9-23.6c-14.4-25-29.6-45.2-43.7-72c-1.7-3.3-1.5-9.9-3.2-13.3c-2.5,2-5.9,5.7-8.7,7.3
						c0-10.1-20.2-28.6-20.2-38.9c0-11,1.2-12.5-8.3-15.3c-1.8-0.5-21.3-7.4-5-9.8c0.2,0,0.3,0,0.4,0c1.5,0,2.6,1.3,3.7,2.5
						c1.1,1.3,2.2,2.5,3.8,2.5h0.1c2.5-8.5-11.1-18-16.6-24.1c-2.2-2.5,0.6-3.7,0.7-3.7c5.7-6.9,4.8-9.5-4.7-9.5
						c-1.7,0-3.7,0.1-5.9,0.2c-6.1-0.9-8.7-12.3-7.5-20.8c-5.4-5-14.3-10.8-16.4-17c-12.9-13.4-26-20.8-31.4-39.1
						c-9.8,11.2,19.7,36.7,28.6,39.5c-0.7,8.2,5.5,11,9,17.3c2.5,4.7-2.6,10-7.2,10c-2.2,0-4.3-1.2-5.4-4.2
						c-4-10.8-9.7-15.7-20.7-26.3c-15.7-15.2-33.2-30.5-44.9-43.1c-4.9-5.3-10-8.5-15.2-13.7c-24.4-24.3-51.5-51.2-81.2-69.6
						c-17.4-11.3-42.4-26-61.1-35.4c-9.9-5-14.4-10.4-24-15.6c-6.9-3.9-13.9-4.9-19.1-11.7c-5.1,6.3,38.8,28,42.7,30.5
						c9.9,5.9,19.2,15.4,28.7,18.4c10.9,3.5,24.9,16.1,30.1,25.9c-0.5,0.2-1.2,0.3-2,0.3c-11.8,0-50.7-23.8-59.2-28.2
						c-19-9.9-36-23.7-54.9-34.2c-18.4-7.9-42.7-15.2-63-27c-20.7-12.1-40.7-27.4-64-33.8c2.6,4.9,9.8,4.4,10.7,10.7
						c-1.1,0.4-2.3,0.5-3.8,0.5c-11.3,0-32.7-10.5-47.8-15c-2.2-0.7-30.7-13.7-37.7-13.7c-1.2,0-1.8,0.4-1.5,1.3
						c0.9,2.5,15.9,13.5,18.6,13.5c-1.5,0.5-3.2,0.7-5,0.7c-13.9,0-34.4-13.9-47.5-14.1c-0.5,0-1,0-1.5,0c-11.3,0-20.4-3.4-27.8-6.7
						c-7.4-3.4-13.1-6.7-17.6-6.7c-1.1,0-2,0.2-3,0.6c-0.7,0.3-1.7,0.5-2.9,0.5c-9.7,0-32.7-10.4-42.3-12
						c-16.6-8.4-32.7-9.7-50.1-15.8c-2.9,16.6,36.3,17.5,47.6,23.2c-3.5,2.8-8,3.9-12.9,3.9c-14.4,0-33.2-9.1-46.2-12.1
						c-8.7-1.2-19.5-0.1-30.9-1.2c-12.6-1.3-25.8-4.9-37.6-5.8c4.5,5.2,30.5,7.6,37.4,13.2c8.9,2.6,17.1,1.6,26.5,5
						c10,3.6,16.1,0.9,23.7,8.4c3.5,3.4,7.2,6.4,11.2,9.1c8.5,5.6,18,9.7,27.5,13.1c22.9,8.2,47,12.5,69.6,21.8
						c9.2,3.8,18.1,8.5,25.8,14.8c4.5-1.6-9.5-10.9-9.4-15.5c22.1,2.2,46,12.9,65.7,22.8c15.1,7.6,29.8,19.9,44.5,24.7
						c23.4,7.7,43.5,22.8,65.4,33.7c16.8,8.4,34.9,16,47.6,30.5c-0.9,0.7-2.2,1-3.8,1c-8,0-23.5-7.5-29.9-7.9
						c-10.2-0.8-15.2-6.5-21.1-8.7c-8.9-4.3-16.7-3.1-20-11.1c-9.5-7.1-12.7-6.5-24-10.7c-24.6-9.3-47.4-24.4-72.8-31.5
						c-20.9-5.8-49.7-12.5-62.1-19.9c-21.8-5.1-33.6-26.3-56.7-26.3c-1.5,0-3.1,0.1-4.7,0.3c-1.8,0.2-3.5,0.3-5.1,0.3
						c-15.7,0-20.9-9.7-34.6-10.5c-11.3-0.7-20.2-7.7-30.6-11.4c-14-4.9-27-5.9-40.5-12.6c-8.8-4.3-19.4-1.6-27.4-6.1
						c-9.4-5.3-28.3-5-39.2-10.6c-2.2,1.3-3.9,1.9-5.3,1.9c-5.2,0-5.9-7.6-6.4-11.5h-0.1c-3.1,0-5.8,1.6-8.1,3.2
						c-2.3,1.6-4.3,3.2-5.9,3.2c-1.7,0-3.1-1.8-4.3-7.1c-3.5-6.3-7.8-8.3-14.7-8.3c-0.3,0-0.5,0-0.8,0c-0.8,0.3-1.4,0.5-1.8,0.5
						c-2.7,0,0.9-5.5,1.6-6.8c2.4-3.9,4.5-5.2,6.5-5.2c4.3,0,8.3,6,15.1,7.6c0.9,0,1.7-0.1,2.5-0.1c5.8,0,10.7,1,15.2,2
						c4.5,1,8.5,2,12.4,2c3.3,0,6.5-0.7,9.9-2.7c-3.9-5.3-25.6-8.1-40.8-9.2c-4-0.3-9.4-1.7-12.3-1.7c-0.7,0-1.3,0.1-1.6,0.3
						c-1.2,0.8-2.8,1.1-4.7,1.1c-4.2,0-9.9-1.7-15.4-3.4c-5.5-1.7-10.9-3.4-14.6-3.4c-0.2,0-0.3,0-0.5,0c-2.4,0.1-4.8,0.2-7,0.2
						c-10.5,0-19.9-1.3-30.5-4.9c-10.7-3.5-20.5-5.4-31.7-6.2c-0.4,0-0.8,0-1.1,0c-3.4,0-4,1.3-4.4,2.7c-0.4,1.3-0.6,2.7-3.2,2.7
						c-1.2,0-2.9-0.3-5.4-0.9C306.1,131,282.7,133.6,255.2,131.6 M327.3,198.4c1.1-2.5-4.7-10-4.5-10.1c3.4-1.7,8.2-2.4,13.6-2.4
						c18.7,0,46,8,58.7,10c19.1,3.2,38.1,7.5,57.1,11.2c10.2,1.9,20.3,3.8,28.8,7.3c12.1,4.9,25.7,1.9,37.3,8.3
						c4.3,2.4,21.3,7.2,21.9,11.1c1,6.4,3,8.3,9.9,10.4c3,0.9,6.3,1.2,9.8,1.2c2.6,0,5.2-0.2,7.9-0.3c2.7-0.2,5.3-0.3,7.9-0.3
						c6,0,11.6,0.8,16.1,4.3c4.9,1.4-1.9,7.7-2.2,9.9c-0.7,5.2,15.2,6.9,18.5,8.5c3.7,1.8,33.1,15.9,30.3,18.4
						c-1.3,0.2-2.6,0.4-3.9,0.6c-20.2-9.1-40.3-18.3-62-23.2c-8-1.8-23.3,0.9-27.7-6.8c-1.4-2.4-3.8-7.3-13.6-7.6
						c-0.8,0.1-1.6,0.1-2.5,0.1c-14.2,0-34.6-7.4-44.1-12c-6.9-1.8-15.8-1.7-21.1-7.2c-3.2,1.4-6.3,2-9.4,2c-5.4,0-10.7-1.6-16.1-3
						c-7.2-1.8-14.5-2.1-21.8-2.1c-1.6,0-3.3,0-4.9,0c-1.6,0-3.3,0-4.9,0c-8.6,0-17.2-0.4-25.6-3.2c-0.3,0-0.6,0-0.9,0
						c-3.1,0-6.9-1.5-11.1-3c-4.2-1.5-9-3-14.2-3c-1.9,0-3.9,0.2-6,0.7c-0.2,0.2-0.7,0.3-1.6,0.3c-11.9,0-83.7-15.9-88.2-23.3
						c3.3-0.2,6.8-0.3,10.4-0.3C288.1,195,310.1,197.7,327.3,198.4 M901.6,259.8c-16.1-8.9-44.8-9.5-50.7-21.3
						c3.7-0.9,7.6-1.9,11.4-1.9c1.8,0,3.6,0.2,5.3,0.8c4.3,3.8,11.4,7.4,17.9,7.4c1.9,0,3.7-0.3,5.4-1
						C890.4,249.6,912.5,257.5,901.6,259.8 M216.8,281.5c-9,0-17.8-2.3-13.6-6.2c3.2-1.3,16.1-1.8,9.4-8.3c2-0.7,6.5-1.1,11.9-1.1
						c16.6,0,42.6,3.7,38.6,12.7c-0.4,2.9-8.2,4.3-18.2,4.3c-6.7,0-14.3-0.6-21.5-1.8C221.3,281.4,219.1,281.5,216.8,281.5
						 M1051.2,337.3c-12.6-6-25.9-11.1-38.6-16.8l-8.7-3.8c-4-1.9-62.3-28.9-43.6-38.1C992.5,295.2,1023.7,313.9,1051.2,337.3
						 M55.8,319.2c1,0,3.9-0.4,7.6-0.8c3.7-0.4,8.3-0.8,12.7-0.8c8,0,15.3,1.3,16.1,6.3c-1,0.1-2.2,0.2-3.5,0.2
						c-11.7,0-31.9-4.3-33.2-4.9C55.5,319.2,55.6,319.2,55.8,319.2 M137.8,332.5c-8.4,0-15.3-5.8-8.2-8.7c2.7-0.2,5.3-0.3,7.9-0.3
						c19.8,0,34.4,5.1,48.2,10.9c-2.1,1.9-5.8,2.6-10.4,2.6c-9.4,0-22.2-3.2-31.4-5.7C142,332.2,139.9,332.5,137.8,332.5
						 M1052.7,338.9c-0.4,0-0.9-0.4-1.4-1.6c0.1,0,0.3,0,0.4,0c0.9,0,1.4,0.4,1.5,0.8C1053.2,338.5,1053,338.9,1052.7,338.9
						 M1291.7,497.6c-0.1-4.5-18.1-10.8-2.7-13.3C1290.7,489.8,1302.7,494.3,1291.7,497.6 M548.2,144.5c-1.9,0-3.4,0.2-4.5,0.5
						c2.9,11.3,19.8,8.6,32.1,10.7C575.7,148.9,557.9,144.5,548.2,144.5 M592.1,155.5c-0.9,0-1.9,0.1-3,0.2c0.6,3.9,3.4,5.5,8,5.5
						c0.8,0,1.7-0.1,2.7-0.2C599.2,157,596.5,155.5,592.1,155.5 M511.6,158.3c-6.9,3.3,2.2,8.2,8.7,8.2c0.7,0,1.4-0.1,2-0.2
						C519.8,162.9,512.4,163.8,511.6,158.3 M706.6,166.3c-5.7,5.8,11.7,10.7,21,10.7c0.1,0,0.2,0,0.4,0
						C728.6,165.8,710.7,172.9,706.6,166.3 M744,179.6c-3.6,5.8,20.2,12.7,32.1,13.5C773.3,180.7,752.1,186.7,744,179.6 M939,227.8
						c-8.1,2.6,1.2,8.9,2.7,10.7C944.5,233.2,938.7,231.2,939,227.8 M957.7,241.1c12,12.9,28.3,20.6,45.4,24
						c-3.7-8.3-14.2-9.9-21.4-13.3C973.8,248,967.1,241.3,957.7,241.1 M768.1,251.8h-5.4c-1.2,6.4,3.3,8,8,8
						C770.4,257,769.5,254.3,768.1,251.8 M1107.4,289.2c-0.1,2.5,4.7,3.6,10.8,7.5c9.6,8.6,20.4,13.8,23.9,13.8
						c0.2-0.3,0.4-0.5,0.7-0.5c2.7,0,10,11.1,12.8,14.9c9.2,9.5,32.5,21,39.4,30.7c-0.6-1.4-1.1-3-1.5-4.6c-0.4-2.8-9-8.8-14.9-14.4
						c-10.4-10-18.5-11.8-28.6-22.1c-3.7-3.7-15.6-9.4-16-9.4c0,0,0,0,0,0c-3.7-2.8-2.8-6.6-9.4-9.4
						C1118.3,293.1,1114.2,290.3,1107.4,289.2 M1152.8,321.3c0.6,1.1,1.5,2.2,2.5,3.3C1154.4,323.6,1153.5,322.4,1152.8,321.3
						 M1155.3,324.6c0.2,0.3,0.4,0.5,0.6,0.8c-0.1-0.1-0.2-0.2-0.3-0.4C1155.5,324.9,1155.4,324.7,1155.3,324.6 M1155.9,325.4
						c0.3,0.4,0.6,0.7,0.7,0.8C1156.4,325.9,1156.1,325.6,1155.9,325.4 M1195,355.7c0.5,1.2,1,2.3,1.7,3.3
						C1196.4,358,1195.8,356.9,1195,355.7 M1196.7,359.1c0.1,0.3,0.2,0.6,0.2,0.9c1,7.8,27.9,34.3,36,36.1
						c-5.6-7.4-14-7.8-11.9-17.1l-2.1-1C1210.3,372.3,1201.6,367.5,1196.7,359.1 M-7.8,406.3c-2.3,0-4.6,0.2-6.9,0.5
						c0.2,1.5,4.5,4.8,6.7,4.8c0.9,0,1.5-0.6,1.3-2.2c1.2,0,2.4,0.1,3.4,0.1c7.4,0,9-0.8,7.3-1.6C2.4,407.1-2.5,406.3-7.8,406.3
						 M305.1,497.1c-1.8,0-3.9,0.2-6,0.5c-2.1,0.2-4.1,0.5-5.9,0.5c-1.2,0-2.4-0.1-3.3-0.4c3.8,4,10.1,5.4,17.8,5.4
						c1.2,0,2.3,0,3.5-0.1C312,498.2,309.1,497.1,305.1,497.1 M378,497.6l-1.2,0.4c-0.2,0.4-0.3,0.7-0.5,1
						C377,498.6,377.5,498.1,378,497.6 M346.1,497.9c-2.9,0-5.9,0.7-9.2,1.4c-3.2,0.7-6.7,1.4-10.4,1.4c-1.5,0-3-0.1-4.6-0.4
						c2,2.8,9,5.6,15.6,5.6c1.1,0,2.2-0.1,3.3-0.3c2.8,2.4,6.3,3.8,11.1,4c0.1,0,0.1,0,0.2,0c4.2,0,7.5-3,10.8-3.8
						c1,0.1,1.9,0.1,2.7,0.1c7.3,0,8.8-2.5,10.7-6.8c-2.8,2-6.5,2.8-10.2,2.8c-5.5,0-11.3-1.6-14.9-3
						C349.6,498.1,347.9,497.9,346.1,497.9 M142.8,534.9c-3.7,0-20.7,2.7-23.5,3.8c-1.5,0.6,7.8,5.9,15.2,5.9c4.9,0,8.9-2.3,8.4-9.8
						H142.8z M148.3,540.3C148.3,540.3,148.3,540.3,148.3,540.3C148.3,540.3,148.3,540.3,148.3,540.3 M45.7,572.9
						c-8.1,0-17.1,1.2-12,6.6l18.3-0.9c9.1,1.1,18.2,2.4,27.4,2.4c3.4,0,6.8-0.2,10.2-0.6c-2-5.8-10.9-6.5-19.3-6.5
						c-1.3,0-2.6,0-3.8,0c-1.2,0-2.4,0-3.6,0c-2.5,0-4.8-0.1-6.4-0.4C55.9,573.4,51,572.9,45.7,572.9 M1508.2,770.3
						c0,0.8-0.1,1.7-0.2,2.5C1508.2,771.9,1508.3,771,1508.2,770.3 M1633.6,1114.7c-12.3,5.5-0.7,22.8-2.7,34.7
						C1639.1,1142.4,1636.1,1125.4,1633.6,1114.7 M1630.9,1173.5c-4.6,4.2-5.8,12-5.3,21.4
						C1629.6,1189.8,1630.7,1182.2,1630.9,1173.5 M1615.8,1268.4c-5.8,6.9-9.5,14.3-3.5,25.3
						C1615.5,1286.8,1616.4,1282.6,1615.8,1268.4 M1609.6,1309.7c-7.3,7.3-11.9,39-14,53c7-10.1,0.8-15.8,6.1-26.9
						C1605.2,1328.5,1610.9,1318.1,1609.6,1309.7 M549.1,1349.6c-0.1,0-0.1,0-0.1,0.1c0.1,0,0.1-0.1,0.2-0.1
						C549.2,1349.7,549.1,1349.6,549.1,1349.6 M555.4,1356.7c0.2,0.2,0.3,0.3,0.3,0.3c0,0,0-0.1-0.2-0.3
						C555.5,1356.8,555.4,1356.8,555.4,1356.7 M519.7,1385.9c-5.6,0-13.7,5.1-13.7,9.8l-0.4,1.6c-9.2,0.1-15.3,4.9-23.3,8.6
						c1,0.1,2,0.2,3,0.2c8.9,0,16.5-4.1,22.8-8.2c6.3-4.1,11.5-8.2,15.6-8.2c0.4,0,0.9,0.1,1.3,0.2
						C524.5,1387.1,522.3,1385.9,519.7,1385.9 M541.2,1587.7c-1.7,0-3.7,0.6-5.9,1.3c-2.1,0.6-4.4,1.3-6.7,1.3c-0.3,0-0.6,0-1,0
						c0.9,3.9,2.8,5.1,5.1,5.1c1.7,0,3.7-0.6,5.8-1.2c2.1-0.6,4.4-1.2,6.6-1.2c0.4,0,0.7,0,1.1,0.1
						C545.4,1588.9,543.6,1587.7,541.2,1587.7 M589.7,1704.7c-1.4,0-2.9,0.2-4.5,0.4c-1.5,0.2-3.1,0.3-4.4,0.3
						c-0.9,0-1.7-0.1-2.4-0.3c0.9,3.7,2.3,4.8,4.1,4.8c1.3,0,2.8-0.6,4.5-1.1c1.7-0.6,3.7-1.1,5.8-1.1c0.5,0,1.1,0,1.6,0.1
						C594.3,1705.3,592.3,1704.7,589.7,1704.7 M832.2,1721.1L832.2,1721.1L832.2,1721.1z M726.6,1725.9c-3.5,0-8.2,2.2-9.3,3.2
						c0.7,2.3,1.7,3.1,3,3.1c1.3,0,2.8-0.8,4.4-1.7c1.6-0.8,3.2-1.7,4.8-1.7c0.4,0,0.8,0.1,1.2,0.2
						C730.4,1726.8,728.7,1725.9,726.6,1725.9 M775.3,1727.5c-9.3,0-24.7,5.9-34,6.9h-10.7c0.1,3.2,3.7,4.7,8.8,4.7
						c3.3,0,7.3-0.6,11.5-1.9c1.5,0.2,2.9,0.4,4.5,0.4c11,0,23.3-5.7,26-8.5C780.1,1728,777.9,1727.5,775.3,1727.5 M817.2,1728.5
						c-3.3,0-5.1,1.5-7,3c-1.8,1.5-3.7,3-7.1,3c-0.1,0-0.2,0-0.3,0c0.7,1.5,3.1,2.2,5.9,2.2c5.7,0,13.2-2.8,12.8-7.5
						C819.8,1728.7,818.4,1728.5,817.2,1728.5 M828.6,1731.6c-1.4,0-2.9,0.1-4.4,0.2c2,3.6,6.1,5.4,11.8,5.4c0.5,0,1,0,1.5,0
						C837.3,1732.6,833.4,1731.6,828.6,1731.6 M1165.4,1778.7c-6.4,0-13.9,9.5-20.6,11.9c0.9,0.7,1.8,1,2.7,1c2.7,0,5.9-2.3,9.5-4.6
						c3.6-2.3,7.7-4.6,12.2-4.6c0.7,0,1.5,0.1,2.2,0.2C1169.6,1779.8,1167.6,1778.7,1165.4,1778.7 M1028,1819.4
						c-0.5,0-0.8,0.2-0.8,0.5c0.3,0,0.5,0,0.8,0c0.6,0,1.1-0.1,1.6-0.2C1029,1819.6,1028.4,1819.4,1028,1819.4 M1037.9,1825.3
						L1037.9,1825.3L1037.9,1825.3z M823.2,1829.3c-2.4,0-5,0.4-7.8,0.9c-2.9,0.4-6,0.9-9.5,0.9c-1.8,0-3.8-0.1-5.8-0.4
						c3.3,3.9,8.6,5.1,14.4,5.1c6,0,12.4-1.3,17.7-2.5C829.6,1830.2,826.6,1829.3,823.2,1829.3 M867,1829.4
						c-6.2,0-11.7,3.7-21.5,3.9c1.1,3.1,4,4.2,7.6,4.2c3.7,0,8.1-1.1,12.3-2.2c4.2-1.1,8.2-2.1,10.9-2.1c0.4,0,0.9,0,1.2,0.1
						C873.5,1830.4,870.2,1829.4,867,1829.4 M778.6,1838.1c-1.5,0-3.2,0.2-4.8,0.4c-1.6,0.2-3.1,0.4-4.3,0.4c-0.6,0-1.1,0-1.4-0.2
						c0.3,2.5,4.9,3,9.1,3c3.3,0,6.3-0.3,6.9-0.3C784,1838.7,781.6,1838.1,778.6,1838.1"/>
				</defs>
				<clipPath id="SVGID_4_">
					<use xlink:href="#SVGID_3_"  style="overflow:visible;"/>
				</clipPath>
				<g class="st1">
					
						<image style="overflow:visible;enable-background:new    ;" width="364" height="369" xlink:href="429A0786.jpeg"  transform="matrix(4.7135 0 0 -4.7132 -70.927 1864.4023)">
					</image>
				</g>
			</g>
		</g>
	</g>
	<path class="st2" d="M1092.3-171.3h15.5c7.6,0,9.1-2.9,9.3-9.5l-0.1-67.5c0-15.6-5.7-32.6-48.6-32.6c-40.3,0-38.6,27.7-38.6,32.5
		v67.7c0.2,7,0.9,9.4,8.6,9.4h16.5v16.7h-95.2v-16.7h16.3c7.9,0,9.3-3.1,9.4-10.4v-64.7c0-43,44.6-50.6,82.9-50.6
		c39,0,76.8,7.9,76.8,49.2l-0.3,69.9c0.5,4.8,2,6.5,8.5,6.5h17v16.7h-78L1092.3-171.3z M1347.4-213.6c-4.3,2.1-10.7,3.9-16.2,5.3
		c-10.8,2.8-35.7,6.1-47.3,7.2c-12.1,1.3-33.4,3.6-41.8,6.3c-2.7,0.7-7.9,4-7.9,10.1c0,4.4,2.5,8,7.1,11c7.5,4.6,22.7,7.5,38.5,7.5
		c18.7,0.2,34.6-4,44.6-8.5c3.4-1.7,7.4-3.9,10.6-6.3c3.6-3,8.6-9.2,10.4-17.6h17v46h-18.8v-5.3c0-1.8-1.8-4-5.3-2.1
		c-8.4,4.5-32.3,13.9-61.6,14c-16.6,0-35.5-3.2-51.4-10.3c-14.8-6.5-27-17.2-27-35c0-15.9,10.2-24.9,9.8-24.6
		c4.3-3.9,11.3-10.4,29.4-14.1c8.1-2,25.6-4.3,42.9-6.2c17.2-1.8,33.9-4.2,40.8-5.8c5.5-1.4,14.5-3.9,14.5-14
		c0-10.3-9.6-13.4-11.3-14c-1.8-0.8-13.2-6-34.1-6c-15.4,0-33.8,4.6-40.6,7c-7.7,2.8-15.9,6.4-23.4,15.9c-1.9,2.2-4.8,8.6-4.8,14.8
		h-19v-52.8h20.9v7.2c0,0.6,1.2,4,4.5,2.3c4.4-1.9,17.3-7,30.8-9.8c11-2.3,18-3.9,31.6-3.9c22.5,0,34.4,3.5,42.7,5.9
		c7.9,2.3,17.5,6.3,25.3,12.5c4.3,3.2,13.5,12,13.5,27.8c0,15.1-7.9,23.9-10.9,26.7C1357.1-218.7,1352.3-216,1347.4-213.6
		L1347.4-213.6z M1479.3-271.5c-1.8,0.5-3.1,1.8-3.6,3.1l-0.3,3.8l-0.3,86.2l0.4,3.8c0.5,1.3,1.8,2.6,3.6,3l4.7,0.3h17.4v16.8H1408
		v-16.8h16.5l4.6-0.3c1.8-0.5,3-1.8,3.6-3l0.3-3.8l-0.3-86.2l-0.2-3.8c-0.7-1.3-1.8-2.6-3.7-3.1l-4.6-0.3h-16.5v-16.8h93.5v16.8
		h-17.4L1479.3-271.5z M1694.1-240.9c-3.1-10.4-13.6-22.3-23.7-27.1c-9.2-4.4-21.2-9.1-40.4-8.9l-4.1,0.1c-3.3,0.2-6.4,0.7-9.5,1.3
		c-11.1,2.3-21.4,7.4-28.9,14.8c-10,10.1-15.4,24.4-15.4,39.4c0,15.3,5.4,29.3,15.4,39.5c10.4,10.2,25.4,15.5,41.3,15.8h2.9
		c17.5-0.3,27.7-2.6,40.8-9.3c8.3-4.2,19.9-16.3,22.3-28.6h18.2v49.7h-18.8v-5.4l-1.5-2.4c-0.8-0.6-2.1-0.6-3.8,0.3
		c-8.1,4.3-29.8,15.7-59,15.8l-3.3-0.1h-0.3c-28.5-0.8-58.2-10.9-75.4-26.4c-4.1-3.8-7.6-7.9-10.6-12.4
		c-7.2-10.9-10.9-23.7-10.9-36.5c0-1.2,0-2.6,0.1-3.9c1-16.7,8-33,21.4-45c16.2-14.6,39-23.4,64.3-25.9c24.1-2.2,48.9,1.6,65.8,11.1
		c16.8,9.6,28.4,25.4,32.4,43l0.2,1.1H1694.1z M849.2-154.6l-39.8-87.7l-39.7,87.7h-86.4v-16.8H698c10.5,0,11.3-5.8,11.3-11v-78.3
		c0-4.9,0.3-11.2-6.5-11.2h-18.1v-16.8h72.8v16.8h-14.3c-7.5,0-7.9,3.3-8,10.8l0,85.3h0.6l51-112.9h28.6L866-175.7h0.7l0.5-85.3
		c-0.1-7.5-0.5-10.8-8-10.8h-14.3v-16.8h88.3v16.8H915c-6.7,0-6.4,6.3-6.4,11.2l-0.5,78.3c0,5.2,0.8,11,11.3,11h14.6v16.8H849.2z
		 M283.1-171.3h17.4c7.8,0,9.3-3.1,9.3-10.4l1-56l-92.1,83.2h-65.9v-16.8h14.6c10.5,0,11.3-5.8,11.3-11v-78.3
		c0-4.9,0.3-11.2-6.5-11.2h-18.1v-16.8h77.4v16.8h-18.9c-7.5,0-7.9,3.3-8,10.8v67.2l106.1-94.7h27l-1.4,107
		c0.2,7.8,0.6,10.4,8.6,10.4h16.9v16.7h-78.8L283.1-171.3z M-124.6-212.7c-4.4,2-11.1,4.5-16.7,5.7c-10.9,2.7-35.2,6-46.9,7.2
		c-12.2,1.3-33.5,3.1-41.9,5.7c-2.6,0.7-7.9,3.3-7.9,9.3c0,4.4,2.5,8,7.2,11c7.5,4.6,22.8,7.5,38.5,7.5c18.8,0.2,34.6-4,44.6-8.5
		c3.5-1.7,7.5-3.9,10.7-6.3c3.6-3,8.6-9.2,10.5-17.6h16.9v46h-18.8v-5.3c0-1.8-1.8-4-5.2-2.1c-8.5,4.5-32.3,13.9-61.6,14
		c-16.6,0-35.5-3.2-51.4-10.3c-14.8-6.5-27-17.2-27-35c0-15.9,10.2-25.2,9.9-24.9c4.3-4.1,11.3-10.8,29.4-14.8
		c8.1-1.8,25.4-4.5,42.7-6.4c17.1-1.7,34-3.5,40.9-5.1c5.5-1.5,14.5-3.4,14.5-13.6c0-10.3-9.6-13.4-11.4-14c-1.7-0.8-13.2-6-34.1-6
		c-15.4,0-33.8,4.6-40.6,7c-7.7,2.8-15.9,6.4-23.5,15.9c-1.9,2.2-4.8,8.5-4.8,14.8h-19v-52.8h21v7.2c0,0.6,1.1,4,4.5,2.3
		c4.4-1.9,17.2-7,30.7-9.8c11-2.3,18.1-3.9,31.7-3.9c22.4,0,34.4,3.5,42.6,5.9c7.9,2.3,17.6,6.3,25.3,12.5
		c4.3,3.2,13.5,12,13.5,27.8c0,15.1-8,24.5-10.9,27.3C-114.9-218.1-119.6-215.1-124.6-212.7z M507.5-171.3h11.4
		c3.4,0,4.3-3.4,2.8-5.2l-32.2-37.6l-0.9,0.2l-31.3,37.4c-2.3,2.8-0.4,5.2,2.1,5.2h11.1v16.7H378v-16.7h16.5
		c7.2,0,11.8-4.6,14.5-7.5c2.2-2.3,49.2-55.7,50.4-57.2c1.1-1.5,1.1-1.8,1.1-2.4v-26.3l-0.3-3.8c-0.7-1.3-1.8-2.6-3.6-3.1l-4.7-0.3
		h-16.4v-16.8h91.9v16.8h-17.4l-4.5,0.3c-1.8,0.5-3.1,1.8-3.6,3.1l-0.4,3.8v26.3l0.7,2.6c1.2,1.4,48.8,55.8,51,58.2
		c4.6,5.3,7.1,6.3,13.2,6.3h16.9v16.7h-75.7L507.5-171.3z M74.1-260.7C63.5-271.3,48.2-277,31.6-277c-16.3,0-31.9,5.7-42.5,16.4
		c-10.1,10-15.5,24.2-15.5,39.2c0,15.2,5.3,29.5,15.5,39.5c10.6,10.4,26.2,16.2,42.5,16.2c16.2,0,32-5.9,42.5-16.2
		c10.3-10,15.5-24.1,15.5-39.5C89.6-237.3,84.7-250,74.1-260.7z M31.6-146.1c-29.6,0-61.1-10.2-79-26.3c-14.2-13-21.6-31-21.6-49
		c0-18.2,7.1-35.9,21.6-49c19.3-17.3,48.1-26.6,79-26.6c31.2,0,60.6,9.1,79.3,26.6c13.9,12.9,21.2,31.5,21.2,49
		c0,18.1-6.9,35.8-21.2,48.8C90.8-154.3,64.6-146.1,31.6-146.1"/>
</g>
</svg>
