<?xml version="1.0" encoding="utf-8"?>
<!-- Generator: Adobe Illustrator 19.2.1, SVG Export Plug-In . SVG Version: 6.00 Build 0)  -->
<svg version="1.1" id="layer" xmlns="http://www.w3.org/2000/svg" xmlns:xlink="http://www.w3.org/1999/xlink" x="0px" y="0px"
	 viewBox="0 0 652 652" style="enable-background:new 0 0 652 652;" xml:space="preserve">
<path d="M322.3,257.9c0.6-0.6,1.9,0,3.2,0s1.3,1.9,3.2,1.3c1.9-0.6,1.9,1.9,5.2,1.9c2.6,0-0.6,1.3-0.6,1.3s-1.9-0.6-2.6,0
	c-0.6,0,0,0-0.6-1.3c-1.3-1.3-1.3,0-3.9-1.9C322.9,257.3,321.7,259.2,322.3,257.9 M300.9,260.9c-1.9-2.6-0.6-5.8,1.3-9.7
	c1.3-1.9,5.2-3.2,8.4-1.9c3.9-2.6,4.5,0,7.7-1.3c4.5-1.9,1.9,5.2,6.4,6.4c1.9-4.5-3.9-7.7-0.6-10.3c2.6-1.3,4.5-1.9,5.2-3.9
	c1.9-3.2,2.6-5.2,3.2-5.8c2.6-0.6,1.9-3.2,1.9-3.2s3.2,0.6,5.2-1.3c-1.3-0.6-3.9-1.3-3.2-3.2c0.6-1.9,6.4,1.9,7.7-1.3
	c-3.2-1.3-6.4-4.5-8.4-5.2c-1.3,1.3-2.6,0.6-4.5-0.6c-3.2-2.6-3.2,0-5.2-1.9c-1.3,3.2,1.3,3.2,1.9,3.9c1.9,1.9-1.9-1.9-1.3,3.2
	c0,1.3-1.9,1.9-3.2-1.3c-1.9-1.3-7.7-1.3-9-2.6c0.6-1.9,8.4-8.4,20-6.4c-16.8-7.1-39.3,0.6-40,2.6c-2.6,1.3-1.3,3.2-2.6,3.2
	c-1.9,0.6-3.9,6.4-3.9,6.4s1.3,0.6-2.6,5.2c-3.2,3.9-3.9,9.7-3.9,9.7s1.9,3.9,1.9,8.4c0,3.2-0.6,0.6,1.3,3.2
	c0.6,1.3,1.9,6.4,2.6,4.5c1.3-3.9-1.9-7.1-1.3-11c0,0.6,1.3-1.3,1.3,0c0,4.5,5.8,13.5,5.8,13.5s-1.9,1.9,0,1.9l-0.6,1.3
	c0,0,1.9,0,2.6,0.6c1.3,0.6,1.9,1.9,3.2,1.9h16.1c0,0,1.3-5.2,1.9-5.8c0.6-0.6-1.9,0-2.6-0.6c-2.6-0.6-2.6,0.6-3.2,1.3
	c-0.6,1.3-0.6,2.6-1.9,3.2c-1.3,0.6-4.5,0.6-5.2,0.6S300.9,260.9,300.9,260.9 M377.3,313.8c-0.6-0.6,0-1.9,0-1.9h-45.8l5.2,4.5
	c1.3,0.6,2.6,1.3,3.2,3.2c1.3,3.9-0.6,0.6-0.6,7.1c0,5.8-1.3,4.5-1.3,4.5s-0.6,6.4-3.9,11c-2.6,1.9-1.3,3.9-1.3,3.9
	s-0.6,0.6-1.3,5.2c-0.6,1.3,1.3,3.9,3.2,3.2c1.3-0.6-3.2-0.6,1.9-3.2c1.9-0.6,0.6-2.6,0.6-2.6s3.2,0,5.2-5.2
	c2.6,1.3,1.3-0.6,7.7-1.9c1.3-0.6,1.9-0.6,1.9-2.6c0-1.3,1.9,0,8.4-6.4c5.2-5.2,3.2-6.4,6.4-8.4c3.9-1.3,3.9,0.6,5.2-0.6
	c2.6-3.9,1.9-3.2,3.2-5.8l0.6-1.3C376,316.4,377.9,314.4,377.3,313.8 M345.2,264.7l-1.3,0.6v-1.3
	C343.9,264.1,345.2,264.7,345.2,264.7z M341.5,263.9c-1.9,0.6-3.2,0-5.2,1.3l-1.3-0.6c1.3-1.3-0.6-2.6,1.9-2.6
	C338.3,262,339.6,263.3,341.5,263.9"/>
<path d="M242.8,265.4c10.3-32.9,35.4-58,78-58c39.3,0,67.7,25.8,78,58.6c-11-30.9-41.9-53.5-78-53.5
	C284.7,212.6,253.7,235.1,242.8,265.4 M398.7,315.7c-10.3,32.9-40,58.6-78,58.6c-40,0-67-25.1-77.3-58c11,30.3,41.9,52.2,77.3,52.2
	C356.8,368.5,387.1,346.6,398.7,315.7 M180.1,273.4h-12.9l1.9,2.6v16.8c0,3.9-2.6,5.2-6.4,5.2c-3.9,0-6.4-1.3-6.4-5.2V276l2.6-2.6
	h-12.9l1.9,2.6v16.8c0,8.4,4.5,11.6,15.5,11.6s14.8-3.2,14.8-11.6v-17.4L180.1,273.4 M224.5,273.4h-11l1.9,2.6v15.5l-15.5-18h-9.7
	l1.9,2.6v25.8l-1.9,2.6h11l-1.9-2.6v-15.5l16.8,18h7.1V276L224.5,273.4z M249.4,303.8l-1.9-2.6v-25.8l1.9-1.9h-12.9l1.9,2.6v25.8
	l-1.9,1.9L249.4,303.8L249.4,303.8z M291.9,273.4h-11l1.9,2.6l-7.7,16.8l-7.1-16.8l1.9-2.6h-12.9l14.2,30.3h6.4L291.9,273.4
	L291.9,273.4z M328.1,303.8v-8.4l-2.6,1.9h-15.5v-5.8h9.7l1.9,1.9v-9.7l-1.9,1.9h-9.7V280h15.5l2.6,1.9v-8.4h-28.4l1.9,2.6v25.8
	l-1.9,1.9L328.1,303.8L328.1,303.8z M361.2,283.3c0,1.9-1.9,3.9-5.2,3.9h-5.8v-7.7h7.1C359.3,280,361.2,280.7,361.2,283.3
	 M371.5,303.9l-8.4-12.2c4.5-1.3,7.1-4.5,7.1-9c0-5.2-3.2-9-11.6-9h-18.7l1.9,2.6V302l-1.9,2.6h12.9l-1.9-2.6v-8.4h3.9l5.8,8.4
	l-1.9,2.6h12.9 M410.2,294.9c0-4.5-3.9-7.7-9.7-9.7c-3.2-0.6-8.4-1.9-8.4-3.9c0-1.3,1.3-1.9,3.9-1.9c3.2,0,8.4,1.3,12.9,3.2v-10.3
	l-2.6,2.6c-2.6-1.3-7.1-2.6-10.3-2.6c-10.3,0-13.5,4.5-13.5,9c0,5.8,3.9,8.4,9.7,10.3c4.5,1.3,8.4,1.9,8.4,3.9
	c0,1.9-2.6,2.6-3.9,2.6c-3.2,0-9-1.3-14.2-4.5v11l2.6-2.6c2.6,1.3,7.7,2.6,12.2,2.6C406.3,304.6,410.2,300.7,410.2,294.9 M441,292.9
	h-10.3l5.2-11L441,292.9z M455.8,303.8l-15.5-30.3H430l1.3,2.6l-13.5,28.4h11l-1.9-2.6l1.3-3.2h14.2l1.3,3.2l-0.6,1.9L455.8,303.8
	L455.8,303.8z M491.6,303.8v-8.4l-2.6,1.9h-14.8v-21.9l1.9-2.6h-12.9l2.6,2.6v25.8l-1.9,2.6L491.6,303.8L491.6,303.8z M485.2,280
	c0-3.2,2.6-5.8,5.8-5.8s6.4,2.6,6.4,5.8s-2.6,5.8-6.4,5.8C487.1,285.8,485.2,283.2,485.2,280 M485.8,280c0,3.2,2.6,5.8,5.8,5.8
	c0,0,0,0,0,0c3.2,0,5.8-2.6,5.8-5.8c0,0,0,0,0,0c0-3.2-2.6-5.8-5.8-5.8c0,0,0,0,0,0C488.5,274.2,485.9,276.8,485.8,280
	C485.8,280,485.8,280,485.8,280"/>
<path d="M493.5,277.6c-0.6-0.6-1.3-0.6-1.9-0.6c-1.9,0-3.2,1.3-3.2,3.2c0,1.9,1.3,3.2,3.2,3.2c0.6,0,1.3,0,1.9-0.6v-0.6
	c-0.6,0.6-1.3,1.3-1.9,1.3c-1.3,0-2.6-1.3-2.6-2.6s0.6-3.2,2.6-3.2c0.6,0,1.3,0,1.9,0.6V277.6 M42.3,414.1v11.6
	c0,5.8-3.2,7.7-10.3,7.7s-10.3-1.9-10.3-7.7v-11.6l-1.3-1.3h9l-1.3,1.3v11.6c0,2.6,1.9,3.9,4.5,3.9c2.6,0,4.5-1.3,4.5-3.9v-11.6
	l-1.3-1.3h8.4L42.3,414.1 M75.4,414.1v18.7h-4.5l-11-12.2v10.3l1.3,1.3h-7.1l1.3-1.3v-16.8l-1.3-1.3h6.4l10.3,11.6v-10.3l-1.3-1.3
	h7.1L75.4,414.1L75.4,414.1z M87.9,433l1.3-1.3v-17.4l-1.3-1.9h8.4l-1.3,1.9v17.4l1.3,1.3H87.9z M118.8,433h-4.5l-9.7-20.6h8.4
	l-0.6,1.9l5.2,11l5.2-11l-1.3-1.9h7.1L118.8,433L118.8,433z M136.7,433l1.3-1.3v-17.4l-1.3-1.9H156v5.8l-1.3-1.3h-11v3.9h6.4
	l1.3-1.3v6.4l-0.6-1.3h-6.4v3.9h10.3l1.3-1.3v5.8L136.7,433L136.7,433z M178.7,416.8h-4.5v5.2h3.9c1.9,0,3.2-1.3,3.2-2.6
	C181.3,417.5,180,416.8,178.7,416.8 M179.4,432.9l1.3-1.3l-3.9-5.8h-2.6v5.8l1.3,1.3h-8.4l1.3-1.3v-17.4l-1.3-1.3H180
	c5.8,0,7.7,2.6,7.7,6.4c0,3.2-1.9,5.2-4.5,6.4l5.8,8.4h-9.7 M208.7,433.6c-3.2,0-6.4-1.3-8.4-1.9l-1.3,1.9v-7.7
	c3.2,2.6,7.1,3.2,9.7,3.2c0.6,0,2.6,0,2.6-1.9c0-1.9-2.6-1.9-5.8-2.6c-3.9-1.3-6.4-3.2-6.4-7.1c0-2.6,1.9-5.8,9-5.8
	c1.9,0,5.2,0.6,6.4,1.3l1.9-1.3v7.1c-2.6-1.3-6.4-2.6-8.4-2.6c-1.9,0-2.6,0.6-2.6,1.3c-0.6,1.9,3.2,2.6,5.8,3.2
	c3.9,1.3,6.4,3.2,6.4,6.4C217.8,431,214.5,433.6,208.7,433.6 M238,418.3l-3.2,7.1h7.1L238,418.3z M242.5,433.1l1.3-1.9l-0.6-1.9
	h-9.7l-1.3,1.9l1.3,1.3h-7.7l9-18.7l-0.6-1.3h7.1l10.3,20.6L242.5,433.1L242.5,433.1z M260,433l1.3-1.3v-17.4l-1.3-1.9h8.4l-1.3,1.9
	v14.2h9.7l1.3-1.3v5.8L260,433L260,433z M324.6,433l1.3-1.3v-9.7l-5.2,11h-2.6l-6.4-11.6v10.3l1.3,1.3h-7.1l1.3-1.3v-17.4l-1.3-1.3
	h7.1l6.4,12.2l5.8-12.2h7.1l-0.6,1.3v17.4l1.3,1.3H324.6z M364.9,414.1v11.6c0,5.8-3.2,7.7-10.3,7.7s-10.3-1.9-10.3-7.7v-11.6
	l-1.3-1.3h9l-1.3,1.3v11.6c0,2.6,1.9,3.9,4.5,3.9c2.6,0,4.5-1.3,4.5-3.9v-11.6l-1.3-1.3h8.4L364.9,414.1 M385.9,433.6
	c-3.2,0-6.4-1.3-8.4-1.9l-1.3,1.9v-7.7c3.2,2.6,7.1,3.2,9.7,3.2c0.6,0,2.6,0,2.6-1.9c0-1.9-2.6-1.9-5.8-2.6
	c-3.9-1.3-6.4-3.2-6.4-7.1c0-2.6,1.9-5.8,9-5.8c1.9,0,5.2,0.6,6.4,1.3l1.9-1.3v7.1c-2.6-1.3-6.4-2.6-8.4-2.6s-2.6,0.6-2.6,1.3
	c-0.6,1.9,3.2,2.6,5.8,3.2c3.9,1.3,6.4,3.2,6.4,6.4C394.9,431,391.7,433.6,385.9,433.6 M405.5,433l1.3-1.3v-17.4l-1.3-1.9h8.4
	l-1.3,1.9v17.4l1.3,1.3H405.5z M436.2,433.4c-6.4,0-11.6-3.2-11.6-11c0-5.8,4.5-10.3,12.2-10.3c2.6,0,5.2,0.6,6.4,1.3l1.3-1.3v6.4
	c-2.6-1.3-5.2-1.9-7.7-1.9c-4.5,0-5.8,2.6-5.8,6.4c0,3.9,2.6,6.4,6.4,6.4c3.9,0,5.8-1.3,7.1-1.9v3.9
	C442.6,432.1,439.4,433.4,436.2,433.4 M485.9,422.9h7.1v8.4c-1.3,0.6-5.8,1.9-9,1.9c-6.4,0-12.2-3.2-12.2-11
	c0-7.7,6.4-10.3,12.2-10.3c3.2,0,5.2,0.6,6.4,1.3l1.9-1.3v7.1c-2.6-1.3-5.2-2.6-8.4-2.6c-3.9,0-5.8,2.6-5.8,6.4s1.9,6.4,5.8,6.4
	c0.6,0,1.9,0,3.2-0.6v-4.5L485.9,422.9 M515,416.8h-4.5v5.2h3.9c1.9,0,3.2-1.3,3.2-2.6C517.6,417.5,516.3,416.8,515,416.8
	 M515.7,432.9l1.3-1.3l-3.9-5.8h-2.6v5.8l1.3,1.3h-8.4l1.3-1.3v-17.4l-1.3-1.3h12.9c5.8,0,7.7,2.6,7.7,6.4c0,3.2-1.9,5.2-4.5,6.4
	l5.8,8.4h-9.7 M546.1,416.4c-3.9,0-5.2,2.6-5.2,6.4c0,3.9,1.3,6.4,5.2,6.4s5.2-2.6,5.2-6.4C551.3,419,550,416.4,546.1,416.4
	 M546.1,433.8c-5.8,0-11.6-3.2-11.6-11c0-7.7,5.8-11,11.6-11s11.6,3.2,11.6,11C557.7,430.6,551.9,433.8,546.1,433.8 M588.6,414.1
	v11.6c0,5.8-3.2,7.7-10.3,7.7c-7.1,0-10.3-1.9-10.3-7.7v-11.6l-1.3-1.3h9l-1.3,1.3v11.6c0,2.6,1.9,3.9,4.5,3.9s4.5-1.3,4.5-3.9
	v-11.6l-1.3-1.3h8.4L588.6,414.1 M610.7,416.8h-3.2v6.4h2.6c2.6,0,4.5-0.6,4.5-3.2C614.6,417.5,612.7,416.8,610.7,416.8
	 M610.7,427.1h-3.9v4.5l1.3,1.3h-8.4l1.3-1.3v-17.4l-1.3-1.3h11c3.9,0,9.7,1.3,9.7,7.1C620.4,425.8,615.9,427.1,610.7,427.1"/>
</svg>
