<?xml version="1.0" encoding="utf-8"?>
<!-- Generator: Adobe Illustrator 19.0.0, SVG Export Plug-In . SVG Version: 6.00 Build 0)  -->
<svg version="1.1" id="layer" xmlns="http://www.w3.org/2000/svg" xmlns:xlink="http://www.w3.org/1999/xlink" x="0px" y="0px"
	 viewBox="-153 -46 652 652" style="enable-background:new -153 -46 652 652;" xml:space="preserve">
<style type="text/css">
	.st0{fill:#0061AA;}
</style>
<path id="path-1" d="M-91.1,378.4l-9.4,29.3c-0.4,1-1.5,1.9-2.5,1.9c-1,0-2.1-0.7-2.4-1.8l-6.2-21.4l-6.2,21.4
	c-0.3,1-1.2,1.8-2.2,1.8s-2.1-0.7-2.5-1.9l-9.4-29.3c0-0.3-0.1-0.4-0.1-0.7c0-1,0.7-2.1,1.8-2.5c0.3-0.1,0.6-0.1,0.7-0.1
	c1,0,2.1,0.7,2.5,1.9l7.1,21.7l6.2-21.7c0.3-0.7,0.9-1.8,2.2-1.8c1.5,0,2.1,1,2.2,1.8l6.2,21.7l7.1-21.7c0.4-1,1.3-1.9,2.5-1.9
	c0.3,0,0.6,0,0.7,0.1c1,0.4,1.9,1.3,1.9,2.5C-91,378.1-91,378.4-91.1,378.4z M-58.6,409.4c-0.4,0.1-0.7,0.3-1,0.3
	c-0.9,0-1.9-0.6-2.2-1.5l-3.2-7.3h-15.7l-3.2,7.3c-0.4,0.9-1.5,1.5-2.4,1.5c-0.4,0-0.7,0-1-0.3c-0.9-0.4-1.5-1.3-1.5-2.2
	c0-0.4,0-0.7,0.3-1l13.2-29.4c0.4-0.7,1.3-1.5,2.2-1.5c1,0,1.9,0.7,2.2,1.5l13.2,29.4c0.1,0.4,0.3,0.7,0.3,1
	C-57,408.1-57.8,409-58.6,409.4z M-73.1,383.6l-5.9,12.7h11.5L-73.1,383.6z M-28.4,394.3c0,0,0.3,0.4,5.9,11.6
	c0.3,0.4,0.3,0.7,0.3,1c0,1-0.6,2.1-1.5,2.3c-0.4,0.3-0.7,0.3-1.2,0.3c-1,0-1.9-0.6-2.4-1.5c-6.3-12.9-6.3-12.9-6.3-12.9h-10.4v11.9
	c0,1.5-1.2,2.6-2.6,2.6c-1.5,0-2.6-1.2-2.6-2.6v-28.9c0-1.5,1.2-2.6,2.6-2.6h13.2c6.3,0,11.5,3.1,11.5,9.8
	C-22.2,389.3-24.4,393-28.4,394.3z M-32.9,380.7c-7.6,0-11.3,0-11.3,0v10h11.3c2.9,0,5.4-1.9,5.4-5C-27.5,382.5-30,380.7-32.9,380.7
	z M12.5,409.6c-0.7,0-1.5-0.3-2.1-0.9l-17.9-23.9v22.3c0,1.5-1.2,2.5-2.5,2.5c-1.5,0-2.5-1-2.5-2.5v-29.4c0-1.3,1-2.5,2.6-2.5
	c0.7,0,1.5,0.4,1.9,0.9c0,0,10.1,13.9,17.9,23.9v-22.3c0-1.5,1-2.5,2.5-2.5s2.5,1.2,2.5,2.5v29.4C15,408.5,14,409.6,12.5,409.6z
	 M48.1,409.3c-14.3,0-19.7,0-19.7,0c-1.5,0-2.6-1.2-2.6-2.6v-28.3c0-1.5,1.2-2.6,2.6-2.6h18.8c1.5,0,2.5,1,2.5,2.5
	c0,1.5-1.2,2.5-2.5,2.5H31v8.8h9c1.5,0,2.5,1,2.5,2.5c0,1.5-1,2.5-2.5,2.5h-9v9.7h17.1c1.5,0,2.5,1,2.5,2.5
	C50.7,408.1,49.5,409.3,48.1,409.3z M80.4,394.3c0,0,0.3,0.4,5.9,11.6c0.3,0.4,0.3,0.7,0.3,1c0,1-0.6,2.1-1.5,2.3
	c-0.4,0.3-0.7,0.3-1.2,0.3c-1,0-1.9-0.6-2.4-1.5c-6.3-12.9-6.3-12.9-6.3-12.9H64.8v11.9c0,1.5-1.2,2.6-2.6,2.6
	c-1.5,0-2.6-1.2-2.6-2.6v-28.9c0-1.5,1.2-2.6,2.6-2.6h13.2c6.3,0,11.5,3.1,11.5,9.8C86.6,389.3,84.4,393,80.4,394.3z M75.7,380.7
	c-7.6,0-11.3,0-11.3,0v10h11.3c2.9,0,5.4-1.9,5.4-5C81.3,382.5,78.6,380.7,75.7,380.7z M417.1,410c-8.7,0-14.1-5.7-14.1-14.2v-17.7
	c0-1.5,1.2-2.6,2.6-2.6c1.5,0,2.6,1.2,2.6,2.6v18.5c0,5.1,3.1,8.6,8.8,8.6c5.7,0,8.7-3.4,8.7-8.6v-18.5c0-1.5,1.2-2.6,2.6-2.6
	c1.5,0,2.6,1.2,2.6,2.6v17.9C431.2,404.3,425.8,410,417.1,410z M318.6,403.9c-3.4,4.2-8.8,6.2-13.8,6.2c-9.8,0-17.2-7.9-17.2-17.4
	s7.5-17.6,17.2-17.6c4.3,0,8.7,1.5,11.5,4.2c0.7,0.6,0.9,1.3,0.9,2.1c0,0.6-0.1,0.9-0.6,1.5c-0.4,0.7-1,0.9-1.9,0.9
	c-0.6,0-1-0.1-1.6-0.6c-2.1-1.5-4.3-3.2-8.7-3.2c-7.2,0-11.8,6-11.8,12.6c0,6.7,4.7,12.5,11.8,12.5c3.4,0,6.9-1.2,9-3.5v-6.2h-7.5
	c-1.3,0-2.5-1-2.5-2.3c0-1.3,1.2-2.3,2.5-2.3H316c1.6,0,2.6,1.2,2.6,2.6v8.8C319.2,402.8,319.1,403.3,318.6,403.9z M349.5,394.3
	c0,0,0.3,0.4,5.9,11.6c0.3,0.4,0.3,0.7,0.3,1c0,1-0.6,2.1-1.5,2.3c-0.4,0.3-0.7,0.3-1.2,0.3c-1,0-1.9-0.6-2.4-1.5
	c-6.5-12.9-6.5-12.9-6.5-12.9h-10.4v11.9c0,1.5-1.2,2.6-2.6,2.6s-2.6-1.2-2.6-2.6v-28.9c0-1.5,1.2-2.6,2.6-2.6h13.2
	c6.3,0,11.5,3.1,11.5,9.8C355.5,389.6,353.3,393,349.5,394.3z M344.7,380.7c-7.6,0-11.3,0-11.3,0v10h11.3c2.9,0,5.4-1.9,5.4-5
	C350.1,382.6,347.8,380.7,344.7,380.7z M378.8,410c-9.8,0-17.2-8.1-17.2-17.6s7.5-17.4,17.2-17.4c9.8,0,17.2,7.9,17.2,17.4
	C396,402.1,388.5,410,378.8,410z M378.8,380c-7.2,0-11.8,5.9-11.8,12.5c0,6.7,4.7,12.5,11.8,12.5c7.2,0,11.6-5.9,11.6-12.5
	C390.5,385.8,385.8,380,378.8,380z M456.4,396.1h-10.3v11.1c0,1.5-1.2,2.6-2.6,2.6c-1.5,0-2.6-1.2-2.6-2.6v-28.7
	c0-1.5,1.2-2.6,2.6-2.6h13.1c7.9,0,11.5,4.7,11.5,10.1C468,391.3,464.3,396.1,456.4,396.1z M457.3,380.7c0,0-7.6,0-11.2,0v10.1
	c0,0,6.2,0,11.2,0c3.4,0,5.3-2.5,5.3-5.1C462.6,383,460.6,380.7,457.3,380.7z M138.1,409.7c-1.5,0-2.5-1-2.5-2.5v-18.8
	c-6.2,12.3-9.4,19.8-9.4,19.8c-0.4,0.9-1.2,1.3-2.1,1.3c-1,0-1.8-0.4-2.2-1.5l-9.6-19.8v18.6c0,1.5-1.2,2.5-2.5,2.5
	c-1.5,0-2.5-1.2-2.5-2.5v-29.4c0-1.5,1-2.5,2.5-2.5c1,0,1.9,0.7,2.4,1.6l11.9,25.1l11.8-25.1c0.4-0.9,1.2-1.6,2.2-1.6
	c1.5,0,2.5,1.2,2.5,2.5v29.4C140.9,408.7,139.6,409.7,138.1,409.7z M164.2,410c-8.7,0-14.1-5.7-14.1-14.2v-17.7
	c0-1.5,1.2-2.6,2.6-2.6s2.6,1.2,2.6,2.6v18.5c0,5.1,3.1,8.6,8.8,8.6c5.7,0,8.7-3.4,8.7-8.6v-18.5c0-1.5,1.2-2.6,2.6-2.6
	s2.6,1.2,2.6,2.6v17.9C178.1,404.3,172.7,410,164.2,410z M225.3,409.7c-1.5,0-2.6-1.2-2.6-2.6v-29c0-1.5,1.2-2.6,2.6-2.6
	s2.6,1.2,2.6,2.6v29C228.1,408.5,226.6,409.7,225.3,409.7z M266.9,403.6c-3.1,3.8-8.2,6.4-13.2,6.4c-9.8,0-17.2-8.1-17.2-17.6
	S244,375,253.7,375c4.1,0,8.4,1.5,11.5,4.4c0.6,0.6,0.7,1.2,0.7,1.9c0,0.6-0.3,1.2-0.7,1.6c-0.4,0.6-1,0.7-1.8,0.7
	c-0.6,0-1.2-0.3-1.6-0.7c-2.4-2.1-4.7-3.1-8.2-3.1c-7.2,0-11.6,5.9-11.6,12.5c0,6.7,4.6,12.6,11.6,12.6c5.3,0,7.9-2.6,9.8-5
	c0.4-0.6,1-0.7,1.8-0.7c0.7,0,1.2,0.3,1.8,0.7c0.6,0.4,0.7,1,0.7,1.8C267.6,402.4,267.3,403,266.9,403.6z M208.1,381.9
	c-2.4-0.9-5.4-1.8-8.2-1.8c-3.4,0-7.8,0.7-7.8,4c0,3.7,7.1,5.3,10.7,6.6c5.6,1.9,10.6,3.4,10.6,9.7c0,7.5-6.9,10-13.5,10
	c-3.7,0-9-0.7-12.3-2.9c-0.9-0.6-1.2-1.3-1.2-2.2c0-1.6,1.2-2.3,2.4-2.3c0.7,0,1.8,0.6,1.8,0.6c3.4,1.6,6.5,2.1,9.6,2.1
	c3.4,0,8.2-0.7,8.2-4.7c0-4-6.2-4.5-12.3-6.7c-4.4-1.6-9-3.4-9-9.5c0-7,6.9-8.9,13.1-8.9c3.2,0,7.5,0.9,10.4,2.1
	c0.9,0.4,1.6,1.3,1.6,2.2c0,1.3-0.7,2.5-2.4,2.5C209.1,382,208.7,382,208.1,381.9z"/>
<path class="st0" d="M261.6,177.5c-15.8-26.7-42.4-37.8-93.4-37.8s-77.6,11.2-93.6,37.7c-8.7,15.5-12,42.8-12,60.4
	s3.2,45.1,12.3,60.2c15.8,26.7,42.4,37.8,93.4,37.8c50.9,0,77.6-11.2,93.4-37.5c9-15.3,12.1-42.8,12.1-60.2
	C273.7,220.2,270.5,192.9,261.6,177.5z M142.7,293.1c-5.7,0-14-2.6-18.2-11.8l-25.4-61.5c-5.4-13.7,5.1-26.8,17.6-26.8
	c5.7,0,14,2.6,18.2,11.8l25.4,61.5C165.7,280.2,155,293.1,142.7,293.1z M193.8,293.1c-5.7,0-14-2.6-18.2-11.8l-25.4-61.5
	c-5.4-13.7,5.1-26.8,17.6-26.8c5.7,0,14,2.6,18.2,11.8l25.4,61.5C216.8,280.2,206.1,293.1,193.8,293.1z M225.6,246.9
	c-5.7,0-14-2.6-18.2-11.8l-6.3-15c-5.4-13.7,5.1-26.8,17.6-26.8c5.7,0,14,2.6,18.2,11.8l6.3,15C248.8,233.9,237.9,246.9,225.6,246.9
	z"/>
</svg>
