<?xml version="1.0" encoding="UTF-8" standalone="no"?>
<!DOCTYPE svg PUBLIC "-//W3C//DTD SVG 1.1//EN" "http://www.w3.org/Graphics/SVG/1.1/DTD/svg11.dtd">
<!-- Created with Vectornator (http://vectornator.io/) -->
<svg height="100%" stroke-miterlimit="10" style="fill-rule:nonzero;clip-rule:evenodd;stroke-linecap:round;stroke-linejoin:round;" version="1.1" viewBox="0 0 2302.22 1445.85" width="100%" xml:space="preserve" xmlns="http://www.w3.org/2000/svg" xmlns:vectornator="http://vectornator.io" xmlns:xlink="http://www.w3.org/1999/xlink">
<defs/>
<clipPath id="ArtboardFrame">
<rect height="1445.85" width="2302.22" x="0" y="0"/>
</clipPath>
<g clip-path="url(#ArtboardFrame)" id="layer1" vectornator:layerName="layer1">
<g opacity="1" vectornator:layerName="g3713">
<path d="M1963.13 1284.11C1949.29 1278.62 1932.12 1273.9 1916.24 1273.9C1897.29 1273.9 1871.43 1277.57 1871.43 1296.98C1871.43 1318.66 1911.05 1327 1932.89 1334.29C1964.4 1344.72 1993.23 1354.03 1993.23 1389.28C1993.23 1431.32 1954.12 1445.82 1915.54 1445.82C1894.03 1445.82 1863.85 1441.06 1844.59 1428.67C1839.36 1425.26 1837.76 1420.76 1837.76 1415.62C1837.76 1406.36 1844.52 1401.57 1851.24 1401.57C1855.65 1401.57 1861.17 1404.49 1861.17 1404.49C1880.09 1413.84 1897.9 1417.09 1915.4 1417.09C1934.94 1417.09 1962.26 1412.17 1962.26 1390.43C1962.26 1367.58 1927.38 1364.62 1891.76 1351.86C1866.11 1342.6 1840.48 1331.72 1840.48 1297.08C1840.48 1257.29 1879.34 1245.41 1915.55 1245.41C1933.9 1245.41 1957.89 1250.63 1975.46 1258.02C1981.17 1260.41 1984.5 1265.73 1984.5 1270.93C1984.5 1278.61 1979.78 1285.35 1970.97 1285.35C1968.77 1285.41 1965.48 1285.03 1963.13 1284.11ZM2298.68 1408.73C2281 1431.34 2251.74 1445.85 2222.44 1445.85C2166.79 1445.85 2124.45 1400.06 2124.45 1345.54C2124.45 1291 2166.79 1245.46 2222.44 1245.46C2246.52 1245.46 2269.99 1253.92 2287.4 1270.72C2290.61 1273.9 2292.34 1277.64 2292.34 1281.43C2292.34 1284.65 2291.21 1288.13 2288.87 1290.74C2286.3 1293.91 2282.5 1295.69 2278.75 1295.69C2275.54 1295.69 2272.04 1294.54 2269.14 1292.2C2255.24 1280.33 2242.16 1274.25 2222.46 1274.25C2181.87 1274.25 2155.76 1307.28 2155.76 1345.55C2155.76 1383.82 2181.84 1417.47 2222.46 1417.47C2252.34 1417.47 2267.69 1401.82 2278.15 1389.35C2280.75 1386.49 2284.22 1384.97 2288.01 1384.97C2291.46 1384.97 2295.28 1386.13 2297.86 1388.75C2300.75 1391.36 2302.22 1394.83 2302.22 1398.65C2302.19 1402.09 2300.97 1405.83 2298.68 1408.73ZM2060.29 1444.41C2051.6 1444.41 2044.66 1437.46 2044.66 1428.75L2044.66 1262.04C2044.66 1253.35 2051.58 1246.39 2060.29 1246.39C2069 1246.39 2075.67 1253.35 2075.67 1262.04L2075.67 1428.73C2075.65 1437.44 2068.98 1444.41 2060.29 1444.41ZM1711.36 1445.85C1662.38 1445.85 1630.75 1413.69 1630.75 1364.12L1630.75 1262.04C1630.75 1253.35 1637.44 1246.39 1646.13 1246.39C1654.82 1246.39 1661.81 1253.35 1661.81 1262.04L1661.81 1368.04C1661.81 1397.32 1679.5 1417.34 1711.36 1417.34C1743.26 1417.34 1760.62 1397.29 1760.62 1368.04L1760.62 1262.04C1760.62 1253.35 1767.56 1246.39 1776.29 1246.39C1784.95 1246.39 1791.94 1253.35 1791.94 1262.04L1791.94 1364.12C1791.95 1413.69 1760.29 1445.85 1711.36 1445.85ZM1563.47 1444.41C1555.36 1444.41 1548.97 1438.02 1548.97 1429.9L1548.97 1322.63C1514.14 1393.1 1495.06 1436.61 1495.06 1436.61C1492.74 1441.8 1488.07 1444.43 1482.58 1444.43C1476.46 1444.43 1472.39 1441.8 1469.75 1436.31L1415.6 1322.95L1415.6 1429.63C1415.6 1437.79 1408.93 1444.46 1400.78 1444.46C1392.69 1444.46 1386.29 1437.81 1386.29 1429.63L1386.29 1260.86C1386.29 1252.75 1392.69 1246.39 1400.78 1246.39C1407.19 1246.39 1411.79 1250.45 1414.41 1255.67L1482.56 1398.32L1550.16 1255.37C1552.43 1250.15 1557.37 1246.41 1563.47 1246.41C1571.56 1246.41 1578.25 1253.07 1578.25 1261.17L1578.25 1429.92C1578.25 1438.02 1571.6 1444.41 1563.47 1444.41ZM1185.33 1277.37L1121 1277.37L1121 1334.19L1185.33 1334.19C1202.18 1334.19 1215.79 1323.78 1215.79 1306.08C1215.79 1288.38 1202.45 1277.37 1185.33 1277.37ZM1211.76 1355.68C1211.76 1355.68 1212.91 1357.72 1244.5 1422.66C1245.65 1424.7 1245.97 1426.7 1245.97 1429.02C1245.97 1434.86 1243.05 1440.33 1237.56 1442.91C1235.5 1444.1 1233.16 1444.4 1230.86 1444.4C1225.07 1444.4 1219.86 1441.19 1217.19 1435.69L1181.03 1360.89L1120.99 1360.89L1120.99 1429C1120.99 1437.69 1113.7 1444.41 1105.31 1444.41C1096.88 1444.41 1089.94 1437.44 1089.94 1429L1089.94 1264.38C1089.94 1255.94 1096.9 1249 1105.31 1249L1181.24 1249C1217.54 1249 1246.82 1266.38 1246.82 1305.25C1246.81 1328.71 1234.36 1348.12 1211.76 1355.68ZM1027.58 1442.08L915.677 1442.08C906.985 1442.08 899.995 1435.12 899.995 1426.43L899.995 1264.36C899.995 1255.67 906.968 1248.98 915.677 1248.98L1023.23 1248.98C1031.34 1248.98 1038.06 1255.09 1038.06 1263.18C1038.06 1271.27 1031.35 1277.96 1023.23 1277.96L931.041 1277.96L931.041 1329.01L982.656 1329.01C990.781 1329.01 997.153 1335.38 997.153 1343.49C997.153 1351.63 990.781 1357.98 982.656 1357.98L931.041 1357.98L931.041 1413.08L1027.58 1413.08C1035.71 1413.08 1042.06 1419.46 1042.06 1427.56C1042.06 1435.69 1035.71 1442.08 1027.58 1442.08ZM824.057 1444.41C819.102 1444.41 815.649 1442.65 812.729 1438.89L710.65 1301.46L710.65 1429.9C710.65 1438.02 703.993 1444.41 695.936 1444.41C687.795 1444.41 681.389 1438.02 681.389 1429.9L681.389 1261.14C681.389 1253.6 687.211 1246.38 696.503 1246.38C700.84 1246.38 705.195 1248.68 707.497 1251.83C707.497 1251.83 764.951 1331.56 809.576 1389.3L809.576 1261.14C809.576 1253.05 815.949 1246.38 824.073 1246.38C832.198 1246.38 838.871 1253.03 838.871 1261.14L838.871 1429.88C838.854 1438.02 832.181 1444.41 824.057 1444.41ZM564.779 1277.37L500.401 1277.37L500.401 1334.19L564.779 1334.19C581.595 1334.19 595.207 1323.78 595.207 1306.08C595.207 1288.38 581.928 1277.37 564.779 1277.37ZM591.154 1355.68C591.154 1355.68 592.288 1357.72 623.901 1422.66C625.069 1424.7 625.353 1426.7 625.353 1429.02C625.353 1434.86 622.467 1440.33 616.961 1442.91C614.926 1444.1 612.607 1444.4 610.272 1444.4C604.466 1444.4 599.261 1441.19 596.625 1435.69L560.425 1360.89L500.385 1360.89L500.385 1429C500.385 1437.69 493.144 1444.41 484.753 1444.41C476.345 1444.41 469.389 1437.44 469.389 1429L469.389 1264.38C469.389 1255.92 476.345 1249 484.753 1249L560.708 1249C596.926 1249 626.253 1266.38 626.253 1305.25C626.27 1328.71 613.758 1348.12 591.154 1355.68ZM335.746 1294.82L302.965 1368.16L368.494 1368.16L335.746 1294.82ZM418.057 1442.91C416.022 1443.81 413.97 1444.4 411.968 1444.4C406.463 1444.4 400.924 1441.23 398.639 1435.71L380.355 1394.55L291.087 1394.55L272.803 1435.71C270.468 1441.23 264.679 1444.4 259.14 1444.4C257.088 1444.4 255.353 1444.1 253.335 1443.25C248.147 1440.91 244.927 1435.39 244.927 1429.88C244.927 1427.87 245.244 1425.51 246.111 1423.49L322.35 1255.09C324.702 1250.13 329.89 1246.39 335.713 1246.39C341.535 1246.39 346.723 1249.85 349.025 1255.09L425.297 1423.49C426.181 1425.55 426.465 1427.55 426.465 1429.58C426.465 1435.11 423.562 1440.66 418.057 1442.91ZM232.849 1265.78L179.182 1433.95C177.196 1440.33 171.091 1444.41 164.685 1444.41C158.629 1444.41 152.84 1440.33 151.088 1434.24L116.889 1311.56L82.3735 1434.24C80.6218 1440.33 75.1333 1444.41 69.0442 1444.41C62.6549 1444.41 56.5658 1440.33 54.5472 1433.95L0.596316 1265.78C0.312715 1264.36 0.0124316 1263.18 0.0124316 1261.73C-0.254487 1255.34 3.79934 1249.26 10.1887 1247.24C11.6067 1246.66 13.0748 1246.36 14.5261 1246.36C20.8988 1246.36 26.6876 1250.38 28.7062 1256.82L68.427 1381.15L103.527 1256.5C104.695 1252.15 108.765 1246.39 116.873 1246.39C124.947 1246.39 129.068 1252.17 130.202 1256.5L165.018 1381.15L204.739 1256.84C206.774 1250.41 212.53 1246.39 218.952 1246.39C220.37 1246.39 221.838 1246.68 223.29 1247.24C229.662 1249.3 233.716 1255.1 233.716 1261.47C233.733 1262.89 233.449 1264.36 232.849 1265.78Z" fill="#231f20" fill-rule="nonzero" opacity="1" stroke="none" vectornator:layerName="path"/>
<path d="M1182.95 0.451493C1200.08 1.11879 1217.26 1.31898 1234.39 2.25319C1251.31 3.13736 1268.18 4.3385 1285.03 6.05678C1304.58 8.00863 1324.05 10.1607 1343.46 13.1468C1406.24 22.8226 1467.03 39.138 1523.13 70.0505C1591.1 107.503 1641.93 161.52 1675.99 231.103C1690.91 261.648 1699.97 294.346 1707.59 327.377C1716.52 365.93 1722.32 404.983 1726.29 444.304C1730.68 488.195 1732.2 532.237 1730.33 576.328C1727.56 643.675 1719.4 710.371 1702.15 775.733C1693.76 807.663 1683.42 838.993 1667.05 867.837C1624.91 942.09 1564.57 996.008 1485.81 1029.31C1448.7 1045 1410.13 1055.66 1370.57 1063.4C1344.21 1068.48 1317.64 1072.26 1290.96 1074.92C1269.46 1077.08 1247.79 1078.74 1226.14 1079.25C1185.03 1080.29 1143.91 1080.77 1102.8 1080.47C1079.35 1080.32 1055.88 1078.55 1032.47 1076.82C1013.14 1075.4 993.8 1073.63 974.599 1071.01C911.072 1062.45 849.047 1048.16 791.126 1019.65C715.287 982.261 658.734 925.508 621.716 849.586C606.485 818.407 597.343 785.025 589.752 751.277C581.194 713.358 575.489 675.005 571.802 636.318C568.482 601.419 566.414 566.469 566.914 531.419C567.298 502.492 568.999 473.665 571.785 444.838C575.722 404.132 581.795 363.778 591.12 323.957C598.527 292.244 607.402 260.964 621.682 231.553C653.379 166.275 700.24 114.542 762.515 77.0071C801.502 53.5182 843.642 37.7867 887.617 26.5428C916.277 19.2359 945.221 13.5972 974.582 10.2274C998.305 7.52484 1022.13 5.0892 1045.93 3.40428C1067.77 1.85282 1089.69 1.50249 1111.59 0.484858C1141.32-0.68291 1152.5 0.651682 1182.95 0.451493ZM1041.31 406.168C1041.14 416.561 1045.05 431.759 1051.15 446.489C1078.28 511.951 1105.34 577.479 1132.38 642.975C1151.1 688.234 1169.62 733.527 1188.47 778.736C1205.07 818.507 1235.21 841.162 1277.62 846.533C1307.21 850.32 1334.09 842.079 1357.06 822.761C1383.23 800.69 1396.8 772.463 1396.56 737.981C1396.43 722.333 1392.43 707.669 1386.54 693.339C1363.25 637.069 1339.94 580.749 1316.69 524.429C1294.32 470.195 1271.73 416.044 1249.61 361.676C1227.59 307.808 1174.69 287.139 1130.65 294.646C1078.8 303.521 1041.2 349.481 1041.31 406.168ZM1008.01 847.067C1026.18 847.784 1043.31 842.796 1059.36 833.705C1105.57 807.53 1128.71 751.06 1105.59 695.474C1068.87 607.358 1032.64 518.991 996.186 430.824C986.393 407.019 976.884 383.096 966.575 359.524C948.307 317.834 915.393 296.514 870.634 293.295C848.13 291.643 827.126 297.982 808.542 310.728C776.762 332.515 759.83 362.593 759.529 401.547C759.429 417.412 763.383 432.342 769.439 446.856C789.357 494.985 809.243 543.214 829.145 591.376C854.903 653.751 880.844 716.043 906.334 778.502C926.12 826.898 969.594 847.518 1008.01 847.067ZM1465.7 590.959C1475.39 591.292 1484.73 589.674 1493.92 587.105C1550.53 571.24 1590.81 507.747 1564.47 442.018C1553.36 414.375 1541.9 386.883 1530.41 359.39C1505.6 300.084 1436.95 278.964 1386.32 302.72C1336.37 326.159 1308 384.447 1331.42 442.402C1342.4 469.578 1353.34 496.82 1365.02 523.729C1384.07 567.67 1418.77 588.723 1465.7 590.959Z" fill="#1c5da3" fill-rule="nonzero" opacity="1" stroke="none" vectornator:layerName="path"/>
</g>
<g opacity="1" vectornator:layerName="g37">
<path d="M968.349 838.098C949.414 830.696 930.909 816.224 920.023 800.305C908.11 782.884 766.588 438.119 762.629 416.873C753.665 368.774 786.646 315.4 835.371 299.152C846.81 295.337 857.21 294.404 873.265 295.75C912.925 299.075 944.045 319.098 960.732 352.027C976.191 382.535 1107.66 704.513 1110.99 719.999C1120.73 765.451 1095.4 814.093 1051.01 835.169C1034.98 842.777 1027.65 844.298 1007.62 844.176C992.13 844.081 978.097 841.909 968.349 838.098Z" fill="#ffffff" fill-rule="nonzero" opacity="1" stroke="none" vectornator:layerName="path"/>
<path d="M1247.35 836.367C1225.33 827.313 1207.68 811.339 1196.32 790.167C1191.91 781.951 1155.99 697.13 1116.5 601.675L1044.7 428.122L1044.65 402.41C1044.6 381.27 1046.09 373.487 1053.05 358.636C1088.13 283.811 1181.51 272.532 1233.29 336.867C1245.13 351.585 1389.63 700.89 1393.25 723.559C1400.49 768.911 1377.01 813.408 1334.66 834.57C1308.72 847.531 1276.14 848.202 1247.35 836.367Z" fill="#ffffff" fill-rule="nonzero" opacity="1" stroke="none" vectornator:layerName="path"/>
<path d="M1445.59 587.214C1422.75 582.413 1403.82 572.303 1388.87 556.92C1377.58 545.302 1370.44 532.384 1354.54 494.828C1328.97 434.425 1325.8 423.736 1325.8 397.882C1325.81 359.512 1351.76 320.546 1388.47 303.783C1412.22 292.941 1449.55 293.332 1473.64 304.677C1510.2 321.886 1518.39 333.222 1549.44 409.599C1567.68 454.446 1570.04 462.738 1570.05 481.835C1570.07 524.201 1548.61 559.101 1511.21 577.512C1489.31 588.292 1466.65 591.643 1445.59 587.214Z" fill="#ffffff" fill-rule="nonzero" opacity="1" stroke="none" vectornator:layerName="path"/>
</g>
</g>
</svg>
