<?xml version="1.0" encoding="UTF-8" standalone="no"?>
<!-- Created with Inkscape (http://www.inkscape.org/) -->

<svg
   xmlns:dc="http://purl.org/dc/elements/1.1/"
   xmlns:cc="http://creativecommons.org/ns#"
   xmlns:rdf="http://www.w3.org/1999/02/22-rdf-syntax-ns#"
   xmlns:svg="http://www.w3.org/2000/svg"
   xmlns="http://www.w3.org/2000/svg"
   xmlns:sodipodi="http://sodipodi.sourceforge.net/DTD/sodipodi-0.dtd"
   xmlns:inkscape="http://www.inkscape.org/namespaces/inkscape"
   width="135.37607mm"
   height="85.019447mm"
   viewBox="0 0 135.37607 85.019447"
   version="1.1"
   id="svg8"
   inkscape:version="0.92.1 r15371"
   sodipodi:docname="Warner_Music_Global.svg">
  <defs
     id="defs2" />
  <sodipodi:namedview
     id="base"
     pagecolor="#ffffff"
     bordercolor="#666666"
     borderopacity="1.0"
     inkscape:pageopacity="0.0"
     inkscape:pageshadow="2"
     inkscape:zoom="0.24748737"
     inkscape:cx="1203.682"
     inkscape:cy="54.623809"
     inkscape:document-units="mm"
     inkscape:current-layer="layer1"
     showgrid="false"
     fit-margin-top="0"
     fit-margin-left="0"
     fit-margin-right="0"
     fit-margin-bottom="0"
     inkscape:window-width="1366"
     inkscape:window-height="705"
     inkscape:window-x="-8"
     inkscape:window-y="-8"
     inkscape:window-maximized="1" />
  <metadata
     id="metadata5">
    <rdf:RDF>
      <cc:Work
         rdf:about="">
        <dc:format>image/svg+xml</dc:format>
        <dc:type
           rdf:resource="http://purl.org/dc/dcmitype/StillImage" />
        <dc:title></dc:title>
      </cc:Work>
    </rdf:RDF>
  </metadata>
  <g
     inkscape:label="Camada 1"
     inkscape:groupmode="layer"
     id="layer1"
     transform="translate(-40.41316,-115.39504)">
    <g
       id="g3713"
       transform="matrix(0.98096645,0,0,0.98096645,23.923236,96.648403)">
      <path
         d="m 134.48662,96.08444 c -0.83,-0.329 -1.859,-0.612 -2.811,-0.612 -1.136,0 -2.686,0.22 -2.686,1.383 0,1.3 2.375,1.8 3.684,2.237 1.889,0.625 3.617,1.183 3.617,3.296 0,2.52 -2.344,3.389 -4.657,3.389 -1.289,0 -3.098,-0.285 -4.253,-1.028 -0.313,-0.204 -0.409,-0.474 -0.409,-0.782 0,-0.555 0.405,-0.842 0.808,-0.842 0.264,0 0.595,0.175 0.595,0.175 1.134,0.56 2.202,0.755 3.251,0.755 1.171,0 2.809,-0.295 2.809,-1.598 0,-1.37 -2.091,-1.547 -4.226,-2.312 -1.538,-0.555 -3.074,-1.207 -3.074,-3.284 0,-2.385 2.329,-3.097 4.5,-3.097 1.1,0 2.538,0.313 3.591,0.756 0.342,0.143 0.542,0.462 0.542,0.774 0,0.46 -0.283,0.864 -0.811,0.864 -0.132,0.004 -0.329,-0.019 -0.47,-0.074 z m 20.114,7.47 c -1.06,1.355 -2.814,2.225 -4.57,2.225 -3.336,0 -5.874,-2.745 -5.874,-6.013 0,-3.269 2.538,-5.999 5.874,-5.999 1.443,0 2.85,0.507 3.894,1.514 0.192,0.191 0.296,0.415 0.296,0.642 0,0.193 -0.068,0.402 -0.208,0.558 -0.154,0.19 -0.382,0.297 -0.607,0.297 -0.192,0 -0.402,-0.069 -0.576,-0.209 -0.833,-0.712 -1.617,-1.076 -2.798,-1.076 -2.433,0 -3.998,1.98 -3.998,4.274 0,2.294 1.563,4.311 3.998,4.311 1.791,0 2.711,-0.938 3.338,-1.686 0.156,-0.171 0.364,-0.262 0.591,-0.262 0.207,0 0.436,0.069 0.591,0.226 0.173,0.157 0.261,0.365 0.261,0.594 -0.002,0.206 -0.075,0.43 -0.212,0.604 z m -14.29,2.139 c -0.521,0 -0.937,-0.417 -0.937,-0.939 v -9.993 c 0,-0.521 0.415,-0.938 0.937,-0.938 0.522,0 0.922,0.417 0.922,0.938 v 9.992 c -0.001,0.522 -0.401,0.94 -0.922,0.94 z m -20.916,0.086 c -2.936,0 -4.832,-1.928 -4.832,-4.899 v -6.119 c 0,-0.521 0.401,-0.938 0.922,-0.938 0.521,0 0.94,0.417 0.94,0.938 v 6.354 c 0,1.755 1.06,2.955 2.97,2.955 1.912,0 2.953,-1.202 2.953,-2.955 v -6.354 c 0,-0.521 0.416,-0.938 0.939,-0.938 0.519,0 0.938,0.417 0.938,0.938 v 6.119 c 0.001,2.971 -1.897,4.899 -4.83,4.899 z m -8.865,-0.086 c -0.486,0 -0.869,-0.383 -0.869,-0.87 v -6.43 c -2.088,4.224 -3.232,6.832 -3.232,6.832 -0.139,0.311 -0.419,0.469 -0.748,0.469 -0.367,0 -0.611,-0.158 -0.769,-0.487 l -3.246,-6.795 v 6.395 c 0,0.489 -0.4,0.889 -0.888,0.889 -0.485,0 -0.869,-0.399 -0.869,-0.889 v -10.117 c 0,-0.486 0.384,-0.867 0.869,-0.867 0.384,0 0.66,0.243 0.817,0.556 l 4.085,8.551 4.052,-8.569 c 0.136,-0.313 0.432,-0.537 0.798,-0.537 0.485,0 0.886,0.399 0.886,0.885 v 10.115 c 0,0.486 -0.399,0.869 -0.886,0.869 z m -22.667,-10.013 h -3.856 v 3.406 h 3.856 c 1.01,0 1.826,-0.624 1.826,-1.685 0,-1.061 -0.8,-1.721 -1.826,-1.721 z m 1.584,4.694 c 0,0 0.069,0.122 1.963,4.015 0.069,0.122 0.088,0.242 0.088,0.381 0,0.35 -0.175,0.678 -0.504,0.833 -0.124,0.071 -0.264,0.089 -0.402,0.089 -0.347,0 -0.659,-0.192 -0.819,-0.522 l -2.168,-4.484 h -3.599 v 4.083 c 0,0.521 -0.437,0.924 -0.94,0.924 -0.505,0 -0.921,-0.418 -0.921,-0.924 v -9.868 c 0,-0.506 0.417,-0.922 0.921,-0.922 h 4.552 c 2.176,0 3.931,1.042 3.931,3.372 -0.001,1.406 -0.747,2.57 -2.102,3.023 z m -11.04,5.179 h -6.708 c -0.521,0 -0.94,-0.417 -0.94,-0.938 v -9.715 c 0,-0.521 0.418,-0.922 0.94,-0.922 h 6.447 c 0.486,0 0.889,0.366 0.889,0.851 0,0.485 -0.402,0.886 -0.889,0.886 h -5.526 v 3.06 h 3.094 c 0.487,0 0.869,0.382 0.869,0.868 0,0.488 -0.382,0.869 -0.869,0.869 h -3.094 v 3.303 h 5.787 c 0.487,0 0.868,0.382 0.868,0.868 0,0.487 -0.381,0.87 -0.868,0.87 z m -12.2,0.14 c -0.297,0 -0.504,-0.106 -0.679,-0.331 l -6.119,-8.238 v 7.699 c 0,0.487 -0.399,0.87 -0.882,0.87 -0.488,0 -0.872,-0.383 -0.872,-0.87 v -10.116 c 0,-0.452 0.349,-0.885 0.906,-0.885 0.26,0 0.521,0.138 0.659,0.327 0,0 3.444,4.779 6.119,8.24 v -7.682 c 0,-0.485 0.382,-0.885 0.869,-0.885 0.487,0 0.887,0.399 0.887,0.885 v 10.115 c -0.001,0.488 -0.401,0.871 -0.888,0.871 z m -15.542,-10.013 h -3.859 v 3.406 h 3.859 c 1.008,0 1.824,-0.624 1.824,-1.685 0,-1.061 -0.796,-1.721 -1.824,-1.721 z m 1.581,4.694 c 0,0 0.068,0.122 1.963,4.015 0.07,0.122 0.087,0.242 0.087,0.381 0,0.35 -0.173,0.678 -0.503,0.833 -0.122,0.071 -0.261,0.089 -0.401,0.089 -0.348,0 -0.66,-0.192 -0.818,-0.522 l -2.17,-4.484 h -3.599 v 4.083 c 0,0.521 -0.434,0.924 -0.937,0.924 -0.504,0 -0.921,-0.418 -0.921,-0.924 v -9.868 c 0,-0.507 0.417,-0.922 0.921,-0.922 h 4.553 c 2.171,0 3.929,1.042 3.929,3.372 10e-4,1.406 -0.749,2.57 -2.104,3.023 z m -15.31,-3.648 -1.965,4.396 h 3.928 z m 4.934,8.877 c -0.122,0.054 -0.245,0.089 -0.365,0.089 -0.33,0 -0.662,-0.19 -0.799,-0.521 l -1.096,-2.467 h -5.351 l -1.096,2.467 c -0.14,0.331 -0.487,0.521 -0.819,0.521 -0.123,0 -0.227,-0.018 -0.348,-0.069 -0.311,-0.14 -0.504,-0.471 -0.504,-0.801 0,-0.121 0.019,-0.262 0.071,-0.383 l 4.57,-10.095 c 0.141,-0.297 0.452,-0.521 0.801,-0.521 0.349,0 0.66,0.207 0.798,0.521 l 4.572,10.095 c 0.053,0.123 0.07,0.243 0.07,0.365 0,0.331 -0.174,0.664 -0.504,0.799 z m -11.102,-10.618 -3.217,10.081 c -0.119,0.382 -0.485,0.627 -0.869,0.627 -0.363,0 -0.71,-0.245 -0.815,-0.61 l -2.05,-7.354 -2.069,7.354 c -0.105,0.365 -0.434,0.61 -0.799,0.61 -0.383,0 -0.748,-0.245 -0.869,-0.627 l -3.234,-10.081 c -0.017,-0.085 -0.035,-0.156 -0.035,-0.243 -0.016,-0.383 0.227,-0.747 0.61,-0.868 0.085,-0.035 0.173,-0.053 0.26,-0.053 0.382,0 0.729,0.241 0.85,0.627 l 2.381,7.453 2.104,-7.472 c 0.07,-0.261 0.314,-0.606 0.8,-0.606 0.484,0 0.731,0.346 0.799,0.606 l 2.087,7.472 2.381,-7.452 c 0.122,-0.385 0.467,-0.626 0.852,-0.626 0.085,0 0.173,0.017 0.26,0.051 0.382,0.123 0.625,0.471 0.625,0.853 0.001,0.085 -0.016,0.173 -0.052,0.258 z"
         id="path5326"
         inkscape:connector-curvature="0"
         style="fill:#231f20" />
      <g
         id="layer1-3"
         transform="translate(0.77061997,9.2474402)">
        <path
           d="m 86.949,9.89 c 1.027,0.04 2.057,0.052 3.084,0.108 1.014,0.053 2.025,0.125 3.035,0.228 1.172,0.117 2.339,0.246 3.503,0.425 3.763,0.58 7.407,1.558 10.77,3.411 4.074,2.245 7.121,5.483 9.163,9.654 0.894,1.831 1.437,3.791 1.894,5.771 0.535,2.311 0.883,4.652 1.121,7.009 0.263,2.631 0.354,5.271 0.242,7.914 -0.166,4.037 -0.655,8.035 -1.689,11.953 -0.503,1.914 -1.123,3.792 -2.104,5.521 -2.526,4.451 -6.143,7.683 -10.864,9.679 -2.225,0.941 -4.537,1.58 -6.908,2.044 -1.58,0.304 -3.173,0.531 -4.772,0.69 -1.289,0.13 -2.588,0.229 -3.886,0.26 -2.464,0.062 -4.929,0.091 -7.393,0.073 C 80.739,74.621 79.332,74.515 77.929,74.411 76.77,74.326 75.611,74.22 74.46,74.063 70.652,73.55 66.934,72.693 63.462,70.984 58.916,68.743 55.526,65.341 53.307,60.79 c -0.913,-1.869 -1.461,-3.87 -1.916,-5.893 -0.513,-2.273 -0.855,-4.572 -1.076,-6.891 -0.199,-2.092 -0.323,-4.187 -0.293,-6.288 0.023,-1.734 0.125,-3.462 0.292,-5.19 0.236,-2.44 0.6,-4.859 1.159,-7.246 0.444,-1.901 0.976,-3.776 1.832,-5.539 1.9,-3.913 4.709,-7.014 8.442,-9.264 2.337,-1.408 4.863,-2.351 7.499,-3.025 1.718,-0.438 3.453,-0.776 5.213,-0.978 1.422,-0.162 2.85,-0.308 4.277,-0.409 1.309,-0.093 2.623,-0.114 3.936,-0.175 1.782,-0.07 2.452,0.01 4.277,-0.002 z m -8.49,24.32 c -0.01,0.623 0.224,1.534 0.59,2.417 1.626,3.924 3.248,7.852 4.869,11.778 1.122,2.713 2.232,5.428 3.362,8.138 0.995,2.384 2.802,3.742 5.344,4.064 1.774,0.227 3.385,-0.267 4.762,-1.425 1.569,-1.323 2.382,-3.015 2.368,-5.082 -0.008,-0.938 -0.248,-1.817 -0.601,-2.676 -1.396,-3.373 -2.793,-6.749 -4.187,-10.125 -1.341,-3.251 -2.695,-6.497 -4.021,-9.756 -1.32,-3.229 -4.491,-4.468 -7.131,-4.018 -3.108,0.532 -5.362,3.287 -5.355,6.685 z m -1.996,26.429 c 1.089,0.043 2.116,-0.256 3.078,-0.801 2.77,-1.569 4.157,-4.954 2.771,-8.286 -2.201,-5.282 -4.373,-10.579 -6.558,-15.864 -0.587,-1.427 -1.157,-2.861 -1.775,-4.274 -1.095,-2.499 -3.068,-3.777 -5.751,-3.97 -1.349,-0.099 -2.608,0.281 -3.722,1.045 -1.905,1.306 -2.92,3.109 -2.938,5.444 -0.006,0.951 0.231,1.846 0.594,2.716 1.194,2.885 2.386,5.776 3.579,8.663 1.544,3.739 3.099,7.473 4.627,11.217 1.186,2.901 3.792,4.137 6.095,4.11 z m 27.435,-15.352 c 0.581,0.02 1.141,-0.077 1.692,-0.231 3.393,-0.951 5.808,-4.757 4.229,-8.697 -0.666,-1.657 -1.353,-3.305 -2.042,-4.953 -1.487,-3.555 -5.602,-4.821 -8.637,-3.397 -2.994,1.405 -4.695,4.899 -3.291,8.373 0.658,1.629 1.314,3.262 2.014,4.875 1.142,2.634 3.222,3.896 6.035,4.03 z"
           sodipodi:nodetypes="cccccccccccccccccccccccccccccccccccccccccccccccccccccccccccccccc"
           inkscape:connector-curvature="0"
           id="path4704"
           style="fill:#1c5da3" />
      </g>
    </g>
    <g
       id="g37">
      <path
         transform="scale(0.26458333)"
         inkscape:connector-curvature="0"
         id="path28"
         d="m 367.95377,622.40224 c -4.20809,-1.64508 -8.32072,-4.86135 -10.74008,-8.39927 -2.64763,-3.87171 -34.1004,-80.49436 -34.98029,-85.21607 -1.99205,-10.6899 5.33776,-22.55193 16.16671,-26.163 2.54227,-0.84776 4.85359,-1.05528 8.42174,-0.75614 8.81425,0.73895 15.73057,5.18904 19.4391,12.50746 3.43578,6.78018 32.65509,78.33834 33.3932,81.78002 2.16639,10.10155 -3.46331,20.91206 -13.32937,25.59592 -3.5618,1.69094 -5.19061,2.02906 -9.64286,2.00177 -3.44291,-0.0211 -6.56168,-0.50374 -8.72815,-1.35069 z"
         style="fill:#ffffff;fill-opacity:1;stroke-width:0.71428573" />
      <path
         transform="scale(0.26458333)"
         inkscape:connector-curvature="0"
         id="path30"
         d="m 429.96036,622.01746 c -4.8945,-2.01217 -8.81583,-5.56239 -11.34096,-10.26765 -0.97996,-1.82603 -8.96246,-20.6772 -17.7389,-41.89148 l -15.95715,-38.57143 -0.013,-5.71429 c -0.0107,-4.69836 0.32153,-6.42797 1.86869,-9.72858 7.79507,-16.62955 28.54932,-19.13632 40.05646,-4.83815 2.63255,3.27107 34.74613,80.9024 35.55084,85.94056 1.60992,10.07939 -3.60935,19.9686 -13.02107,24.67169 -5.76453,2.88057 -13.00692,3.02961 -19.40491,0.39933 z"
         style="fill:#ffffff;fill-opacity:1;stroke-width:0.71428573" />
      <path
         transform="scale(0.26458333)"
         inkscape:connector-curvature="0"
         id="path32"
         d="m 474.01742,566.64434 c -5.07462,-1.06691 -9.28107,-3.3139 -12.60363,-6.73256 -2.50947,-2.58206 -4.09703,-5.45317 -7.6305,-13.79978 -5.68309,-13.42436 -6.38721,-15.7998 -6.38652,-21.54577 10e-4,-8.52767 5.7685,-17.1876 13.92801,-20.91305 5.27776,-2.40971 13.5731,-2.32263 18.92857,0.19869 8.12358,3.82453 9.94363,6.34388 16.84582,23.31839 4.05278,9.96695 4.57861,11.8099 4.58055,16.05413 0.004,9.41557 -4.76602,17.17211 -13.07743,21.2638 -4.86665,2.39585 -9.90326,3.14043 -14.58487,2.15615 z"
         style="fill:#ffffff;fill-opacity:1;stroke-width:0.71428573" />
    </g>
  </g>
</svg>
