<?xml version="1.0" encoding="utf-8"?>
<!-- Generator: Adobe Illustrator 26.2.1, SVG Export Plug-In . SVG Version: 6.00 Build 0)  -->
<svg version="1.1" id="a" xmlns="http://www.w3.org/2000/svg" xmlns:xlink="http://www.w3.org/1999/xlink" x="0px" y="0px"
	 viewBox="0 0 610 140" style="enable-background:new 0 0 610 140;" xml:space="preserve">
<style type="text/css">
	.st0{fill:#FFFFFF;}
</style>
<g>
	<g>
		<path class="st0" d="M239.8,48.1c-2-1.7-4.5-3-7.2-3.8c-2.6-0.8-5.5-1.2-8.5-1.2c-4.3,0-8.3,1-11.9,2.9c-2.5,1.3-4.6,3.1-6.3,5.2
			c-1.8-2.2-4-4-6.5-5.3c-3.6-1.8-7.7-2.7-12.1-2.7c-3.1,0-6,0.4-8.7,1.3c-2.8,0.9-5.2,2.2-7.3,3.9c-2.1,1.8-3.7,4-4.9,6.6
			c-1.2,2.6-1.8,5.6-1.8,8.9v32.8H176V66.7c0-2.5,0.3-4.6,0.9-6.3c0.6-1.6,1.4-2.9,2.4-3.9c1-1,2.2-1.7,3.6-2.2
			c1.5-0.5,3.1-0.7,5-0.7s3.4,0.3,4.9,0.8c1.4,0.5,2.6,1.2,3.6,2.2c1,1,1.9,2.4,2.5,4.1c0.7,1.8,1,4,1,6.6v29.2h11.3V67.4
			c0-2.6,0.3-4.8,1-6.6c0.6-1.7,1.5-3.1,2.5-4.1c1.1-1,2.3-1.8,3.7-2.3c1.5-0.5,3.1-0.8,4.9-0.8c3.6,0,6.4,0.9,8.6,2.9
			c2.1,1.8,3.1,5.2,3.1,9.9v30.1h11.3V63.5c0-3.3-0.6-6.3-1.8-8.9C243.5,52.1,241.9,49.9,239.8,48.1L239.8,48.1z"/>
		<path class="st0" d="M278.6,77.4c5.4,0,10-0.4,13.6-1.1c3.8-0.8,6.8-1.9,9.1-3.4c2.5-1.5,4.2-3.4,5.3-5.6c1-2.1,1.5-4.4,1.5-6.9
			s-0.5-4.7-1.4-6.9c-0.9-2.2-2.4-4.1-4.3-5.6c-1.8-1.5-4.1-2.7-6.8-3.6c-2.6-0.8-5.7-1.2-9.1-1.2c-4,0-7.8,0.7-11.2,2
			c-3.4,1.4-6.5,3.3-9,5.8c-2.5,2.5-4.5,5.5-5.9,8.9c-1.4,3.4-2.1,7.3-2.1,11.4s0.7,8.1,2.2,11.4c1.5,3.3,3.5,6.1,6.1,8.4
			c2.6,2.2,5.6,4,8.9,5.1c3.3,1.1,6.9,1.7,10.7,1.7c2.3,0,4.6-0.2,6.6-0.6c1.9-0.4,3.7-0.8,5.3-1.4c1.6-0.5,2.9-1.1,4.1-1.7
			c1.1-0.6,1.9-1,2.5-1.4l2.1-1.3l-5.3-8.8l-2.1,1.2c-1.1,0.6-2.7,1.4-4.9,2.3c-1.9,0.8-4.4,1.2-7.3,1.2c-4.9,0-8.9-1.2-11.7-3.5
			c-2.1-1.7-3.6-3.9-4.5-6.6c0.7,0,1.4,0.1,2,0.1C274.7,77.4,276.5,77.4,278.6,77.4L278.6,77.4z M296,56.9c0.5,0.8,0.7,1.9,0.7,3.2
			c0,0.9-0.2,1.8-0.7,2.6c-0.4,0.7-1.2,1.5-2.4,2.1c-1.4,0.8-3.4,1.4-5.9,1.9c-2.6,0.5-6.1,0.8-10.2,0.8c-1.8,0-3.4,0-5-0.1
			c-0.8,0-1.5,0-2.3-0.1c0.2-1.3,0.5-2.6,1-3.9c0.7-2,1.8-3.8,3.1-5.3c1.3-1.5,3-2.7,4.9-3.6c1.9-0.9,4.2-1.3,6.8-1.3
			c1.5,0,2.9,0.1,4.3,0.4c1.3,0.3,2.4,0.7,3.4,1.3C294.8,55.3,295.5,56,296,56.9L296,56.9z"/>
		<path class="st0" d="M327.8,21.7c-0.8-0.2-1.6-0.3-2.4-0.3c-2,0-3.5,0.6-4.5,1.7c-1,1.1-1.5,2.5-1.5,4v69.4h11.3V23l-1.4-0.7
			C329,22.1,328.5,21.9,327.8,21.7z"/>
		<path class="st0" d="M391.4,51.1c-2.5-2.5-5.4-4.5-8.8-5.9c-3.4-1.4-7.1-2.1-11.1-2.1c-4.2,0-8.2,1-11.8,2.9
			c-1.5,0.8-2.9,1.7-4.2,2.8V22.9l-1.4-0.7c-0.4-0.2-0.9-0.4-1.6-0.6c-0.8-0.2-1.6-0.3-2.4-0.3c-2,0-3.5,0.6-4.5,1.8
			c-1,1.1-1.4,2.5-1.4,4v41.1c0,1.6,0.1,3,0.2,4.2s0.2,2.3,0.4,3.3c0.6,3.4,1.7,6.5,3.2,9.2c1.5,2.7,3.5,5.1,5.8,7
			c2.3,1.9,5,3.4,8,4.4c3,1,6.2,1.5,9.7,1.5c4,0,7.7-0.7,11.2-2.1c3.4-1.4,6.4-3.4,8.8-5.9c2.4-2.5,4.4-5.4,5.7-8.7
			c1.4-3.3,2-6.9,2-10.6c0-3.7-0.7-7.4-2-10.7C395.7,56.5,393.8,53.5,391.4,51.1L391.4,51.1z M371.4,53.5c2.5,0,4.7,0.4,6.6,1.3
			c1.9,0.8,3.6,2,4.9,3.5c1.4,1.5,2.5,3.3,3.2,5.4c0.7,2.1,1.1,4.4,1.1,6.8s-0.4,4.6-1.1,6.7c-0.7,2.1-1.8,3.8-3.2,5.3
			c-1.4,1.5-3.1,2.7-5,3.6c-1.9,0.9-4.1,1.3-6.6,1.3s-4.6-0.4-6.6-1.3c-1.9-0.8-3.6-2-5-3.5c-1.4-1.5-2.5-3.2-3.2-5.3
			c-0.8-2.1-1.2-4.4-1.2-6.9s0.4-4.7,1.2-6.8c0.8-2.1,1.9-3.9,3.3-5.4c1.4-1.5,3-2.7,4.9-3.5C366.7,53.9,368.9,53.5,371.4,53.5
			L371.4,53.5z"/>
		<path class="st0" d="M457.2,51.1c-2.5-2.5-5.5-4.4-8.9-5.8c-3.4-1.4-7.1-2.1-11.1-2.1c-4,0-7.7,0.7-11.1,2.1
			c-3.4,1.4-6.4,3.4-8.9,5.8c-2.5,2.5-4.4,5.4-5.8,8.7c-1.4,3.3-2.1,6.9-2.1,10.7s0.7,7.3,2.1,10.6c1.4,3.3,3.4,6.2,5.8,8.7
			c2.5,2.5,5.4,4.5,8.9,5.9c3.4,1.4,7.2,2.1,11.2,2.1c4,0,7.7-0.7,11.2-2.1c3.4-1.4,6.4-3.4,8.9-5.9c2.5-2.5,4.4-5.4,5.8-8.7
			c1.4-3.3,2.1-6.9,2.1-10.6s-0.7-7.4-2.1-10.7C461.6,56.5,459.7,53.5,457.2,51.1L457.2,51.1z M453.3,70.5c0,2.3-0.4,4.6-1.2,6.7
			c-0.8,2.1-1.9,3.8-3.3,5.3c-1.4,1.5-3.1,2.7-5.1,3.6c-1.9,0.9-4.2,1.3-6.6,1.3s-4.6-0.4-6.6-1.3c-2-0.9-3.6-2.1-5-3.5
			c-1.4-1.5-2.5-3.3-3.3-5.4c-0.8-2.1-1.2-4.3-1.2-6.7s0.4-4.7,1.2-6.8c0.8-2.1,1.9-3.9,3.3-5.4c1.4-1.5,3.1-2.7,5-3.5
			c2-0.8,4.2-1.3,6.6-1.3c2.4,0,4.7,0.4,6.6,1.3c2,0.8,3.6,2,5,3.5c1.4,1.5,2.5,3.4,3.3,5.4C452.9,65.8,453.3,68.1,453.3,70.5
			L453.3,70.5z"/>
		<path class="st0" d="M518.3,70.5c-1.5-1.3-3.5-2.5-5.9-3.4c-2.3-0.9-5.1-1.5-8.4-1.9L493.1,64c-2.7-0.3-4.9-1-6.2-1.9
			c-1.1-0.7-1.5-1.7-1.5-3.1c0-1.9,0.7-3,2.5-3.8c2.3-1.1,5.4-1.6,9.5-1.6c2.5,0,4.8,0.2,6.7,0.6c1.9,0.4,3.6,0.9,5,1.4
			c1.3,0.5,2.4,1,3.1,1.5c1,0.7,1.3,0.9,1.3,0.9l1.4,1.4l1.7-1.1c0.7-0.5,1.4-1.1,2.1-1.9c0.9-1,1.3-2.3,1.3-3.8
			c0-1.6-0.7-3.9-3.9-5.7l0,0c-1.6-0.9-3.9-1.7-7.1-2.5c-3.1-0.8-7-1.2-11.3-1.2c-4.2,0-7.7,0.4-10.6,1.2c-3,0.9-5.4,2-7.3,3.5
			c-1.9,1.5-3.4,3.3-4.2,5.3c-0.8,1.9-1.3,3.9-1.3,6c0,4.5,1.7,8.2,5,10.9c3.1,2.5,7.5,4.1,13.1,4.7l10,1.1c5.1,0.6,7,1.6,7.7,2.2
			c1,0.9,1.5,2,1.5,3.6c0,1-0.2,1.7-0.6,2.3c-0.5,0.7-1.3,1.3-2.2,1.8c-1.1,0.5-2.4,1-3.9,1.2c-1.6,0.3-3.4,0.4-5.3,0.4
			c-2.6,0-4.9-0.2-7-0.6c-2.2-0.4-4.1-0.9-5.7-1.4c-1.6-0.5-2.9-1.1-3.9-1.5c-1.1-0.5-1.8-0.9-2.2-1.1l-2.2-1.1l-4.9,8.9l1.8,1.3
			c0.3,0.2,0.8,0.5,2.6,1.4c1.3,0.7,3,1.3,5.2,2c2.1,0.6,4.4,1.2,7.3,1.7c2.8,0.5,5.9,0.8,9.2,0.8c3.7,0,7-0.4,9.9-1.2
			c2.9-0.8,5.4-1.9,7.4-3.4c2.1-1.5,3.7-3.3,4.8-5.4c1.1-2.1,1.6-4.4,1.6-6.9c0-2-0.3-3.9-1-5.7C521,73.5,519.9,71.9,518.3,70.5
			L518.3,70.5z"/>
		<path class="st0" d="M574.7,70.5c-1.5-1.3-3.5-2.5-5.9-3.4c-2.3-0.9-5.1-1.5-8.4-1.9L549.5,64c-2.7-0.3-4.8-1-6.2-1.9
			c-1.1-0.7-1.5-1.7-1.5-3.1c0-1.9,0.7-3,2.5-3.8c2.3-1.1,5.4-1.6,9.5-1.6c2.5,0,4.8,0.2,6.7,0.6c1.9,0.4,3.6,0.9,5,1.4
			c1.3,0.5,2.3,1,3.1,1.5c1,0.7,1.3,0.9,1.3,0.9l1.4,1.4l1.7-1.1c0.7-0.5,1.4-1.1,2.1-1.9c0.9-1,1.3-2.3,1.3-3.8
			c0-1.6-0.7-3.9-3.9-5.7l0,0c-1.6-0.9-3.9-1.7-7.1-2.5c-3.1-0.8-7-1.2-11.3-1.2c-4.2,0-7.7,0.4-10.6,1.2c-3,0.9-5.4,2-7.3,3.5
			c-1.9,1.5-3.4,3.3-4.2,5.3c-0.8,1.9-1.3,3.9-1.3,6c0,4.5,1.7,8.2,5,10.9c3.1,2.5,7.5,4.1,13.1,4.7l10,1.1c5.1,0.6,7,1.6,7.7,2.2
			c1,0.9,1.5,2,1.5,3.6c0,1-0.2,1.7-0.6,2.3c-0.5,0.7-1.3,1.3-2.2,1.8c-1.1,0.5-2.4,1-3.9,1.2c-1.6,0.3-3.4,0.4-5.3,0.4
			c-2.6,0-4.9-0.2-7-0.6c-2.1-0.4-4.1-0.9-5.7-1.4c-1.6-0.5-2.9-1.1-3.9-1.5c-1.1-0.5-1.8-0.9-2.2-1.1l-2.2-1.1l-4.9,8.9l1.7,1.3
			c0.3,0.3,0.9,0.6,2.6,1.4c1.3,0.7,3,1.3,5.2,2c2.1,0.6,4.4,1.2,7.3,1.7c2.8,0.5,5.9,0.8,9.2,0.8c3.7,0,7-0.4,9.9-1.2
			c2.9-0.8,5.4-1.9,7.4-3.4c2.1-1.5,3.7-3.3,4.8-5.4c1.1-2.1,1.6-4.4,1.6-6.9c0-2-0.4-3.9-1-5.6C577.5,73.5,576.3,71.9,574.7,70.5
			L574.7,70.5z"/>
		<path class="st0" d="M604.4,49.5c-0.4-0.9-0.9-1.6-1.5-2.3c-0.7-0.7-1.4-1.2-2.3-1.5c-0.9-0.4-1.8-0.6-2.8-0.6s-1.9,0.2-2.8,0.6
			c-0.9,0.4-1.6,0.9-2.3,1.5s-1.2,1.4-1.5,2.3c-0.4,0.9-0.6,1.8-0.6,2.8c0,1,0.2,1.9,0.6,2.8c0.4,0.9,0.9,1.6,1.5,2.3
			c0.7,0.7,1.4,1.2,2.3,1.5c0.9,0.4,1.8,0.6,2.8,0.6s1.9-0.2,2.8-0.6c0.9-0.4,1.6-0.9,2.3-1.5c0.7-0.7,1.2-1.4,1.5-2.3
			c0.4-0.9,0.6-1.8,0.6-2.8C605,51.3,604.8,50.3,604.4,49.5z M602.8,54.5c-0.3,0.7-0.7,1.3-1.2,1.8c-0.5,0.5-1.1,0.9-1.7,1.2
			c-0.7,0.3-1.4,0.4-2.1,0.4c-0.8,0-1.5-0.1-2.1-0.4c-0.7-0.3-1.2-0.7-1.7-1.2c-0.5-0.5-0.9-1.1-1.2-1.8c-0.3-0.7-0.4-1.4-0.4-2.2
			c0-0.8,0.1-1.5,0.4-2.2s0.7-1.3,1.2-1.8s1.1-0.9,1.7-1.2s1.4-0.4,2.1-0.4c0.8,0,1.5,0.2,2.1,0.4c0.7,0.3,1.2,0.7,1.7,1.2
			c0.5,0.5,0.9,1.1,1.2,1.8c0.3,0.7,0.4,1.4,0.4,2.2C603.3,53,603.1,53.8,602.8,54.5z"/>
		<path class="st0" d="M600.4,54.4c-0.2-0.3-0.3-0.6-0.5-0.8c-0.2-0.3-0.3-0.5-0.5-0.7c0.4-0.2,0.7-0.5,1-0.8
			c0.3-0.3,0.4-0.8,0.4-1.3c0-0.8-0.3-1.4-0.9-1.9c-0.6-0.4-1.5-0.7-2.8-0.7c-0.5,0-1,0-1.3,0c-0.3,0-0.6,0.1-0.8,0.1
			s-0.3,0.2-0.4,0.3c-0.1,0.1-0.1,0.3-0.1,0.5V56h1.6v-2.8c0.1,0,0.3,0,0.4,0.1c0.2,0,0.3,0,0.5,0c0.1,0,0.3,0,0.5,0
			c0.2,0,0.3,0,0.3,0c0.1,0.2,0.2,0.4,0.4,0.6c0.1,0.3,0.3,0.5,0.4,0.8c0.1,0.3,0.3,0.5,0.4,0.8c0.1,0.3,0.2,0.4,0.3,0.5h1.9
			c-0.1-0.3-0.2-0.5-0.4-0.8C600.7,54.9,600.6,54.7,600.4,54.4L600.4,54.4z M598.7,51.6c-0.3,0.2-0.7,0.3-1.4,0.3
			c-0.3,0-0.6,0-0.7,0s-0.3,0-0.4,0v-2.3c0.1,0,0.2,0,0.3,0s0.4,0,0.7,0c0.7,0,1.2,0.1,1.5,0.4c0.3,0.2,0.4,0.5,0.4,0.8
			C599.1,51.1,599,51.4,598.7,51.6L598.7,51.6z"/>
	</g>
	<path class="st0" d="M118.5,23c-12.6-12.6-29.2-19.5-47-19.5S37,10.4,24.5,23S5,52.2,5,70s6.9,34.4,19.5,47s29.2,19.5,47,19.5
		s34.4-6.9,47-19.5S138,87.8,138,70S131,35.6,118.5,23z M32.8,77.7v28.5c0,1.1-1.4,1.7-2.2,0.9c-3.1-3.3-5.8-6.9-8-10.8
		c-0.6-1.1-0.9-2.3-0.9-3.6V63c0-3,2.5-5.4,5.5-5.4c1,0,1.9,0.3,2.7,0.8c1.6,0.9,2.8,2.6,2.8,4.6V77.7L32.8,77.7z M55,108.2v12.4
		c0,0.7-0.7,1.2-1.4,1c-3-1-5.9-2.3-8.6-3.7c-0.6-0.3-1-1-1-1.7V70.4c0-3,2.5-5.4,5.5-5.4s5.5,2.4,5.5,5.4V108.2z M77.1,70.4v52.4
		c0,0.9-0.6,1.6-1.5,1.6c-2.2,0.1-5.8,0.1-8,0c-0.9-0.1-1.5-0.8-1.5-1.6V51.1c0-3,2.5-5.4,5.5-5.4c3.1,0,5.5,2.4,5.5,5.4L77.1,70.4
		L77.1,70.4z M99.2,77.7v38.5c0,0.7-0.4,1.3-1,1.7c-2.7,1.5-5.6,2.7-8.6,3.7c-0.7,0.2-1.4-0.3-1.4-1V39.9c0-3,2.5-5.4,5.5-5.4
		c0.9,0,1.7,0.3,2.5,0.6c0.6,0.3,1.2,0.7,1.6,1.2c0.9,1,1.5,2.2,1.5,3.6V77.7L99.2,77.7z M120.5,95.9c-2.2,4-5,7.8-8.1,11.1
		c-0.8,0.8-2.2,0.2-2.2-0.9V70.4c0-2.5,1.8-4.5,4.1-5.1c0.5-0.1,0.9-0.3,1.4-0.3c3,0,5.5,2.4,5.5,5.4V93
		C121.3,94,121.1,95,120.5,95.9L120.5,95.9z"/>
</g>
</svg>
